<svg xmlns="http://www.w3.org/2000/svg" style="display:none">
  <symbol id="v-arrow_up_small_line" xmlns="http://www.w3.org/2000/svg" viewBox="0 0 12 12" class="ecbkoq21f__design-iconfont">  <path fill-rule="evenodd" clip-rule="evenodd" d="M5.99414 3.80007C6.12511 3.7977 6.25684 3.84649 6.35678 3.94643L9.74778 7.33744C9.94305 7.5327 9.94305 7.84928 9.74778 8.04454C9.55252 8.23981 9.23594 8.23981 9.04068 8.04454L6.00018 5.00405L2.95951 8.04471C2.76425 8.23998 2.44767 8.23998 2.2524 8.04471C2.05714 7.84945 2.05714 7.53287 2.2524 7.33761L5.6435 3.94651C5.74039 3.84962 5.86715 3.80081 5.99414 3.80007Z"></path></symbol>
  <symbol id="v-arrow_right_line" xmlns="http://www.w3.org/2000/svg" viewBox="0 0 24 24" class="design-iconfont">  <path fill-rule="evenodd" clip-rule="evenodd" d="M17.7385 11.7744C17.7448 11.7858 17.7502 11.7971 17.755 11.8086C17.8057 11.9311 17.8057 12.0688 17.755 12.1913C17.7169 12.2832 17.6345 12.3655 17.4698 12.5303L8.63097 21.3691C8.46624 21.5338 8.38387 21.6162 8.29199 21.6542C8.16947 21.705 8.03182 21.705 7.9093 21.6542C7.81742 21.6162 7.73505 21.5338 7.57031 21.3691C7.40558 21.2044 7.32321 21.122 7.28515 21.0301C7.2344 20.9076 7.2344 20.7699 7.28515 20.6474C7.32321 20.5555 7.40558 20.4732 7.57031 20.3084L15.8788 11.9999L7.57029 3.69138C7.40556 3.52664 7.32319 3.44428 7.28513 3.35239C7.23438 3.22988 7.23438 3.09222 7.28513 2.96971C7.32319 2.87782 7.40556 2.79545 7.57029 2.63072C7.73503 2.46598 7.8174 2.38362 7.90928 2.34556C8.0318 2.29481 8.16945 2.29481 8.29197 2.34556C8.38385 2.38362 8.46622 2.46598 8.63095 2.63072L17.4698 11.4696C17.5534 11.5531 17.6157 11.6155 17.6619 11.6687C17.6953 11.7072 17.7203 11.7409 17.7385 11.7744Z"></path></symbol>
  <symbol id="v-base_server_fill" xmlns="http://www.w3.org/2000/svg" viewBox="0 0 24 24" class="iaaazvqul__design-iconfont">  <path fill-rule="evenodd" clip-rule="evenodd" d="M4.5 4C3.39543 4 2.5 4.89543 2.5 6V18C2.5 19.1046 3.39543 20 4.5 20H19.5C20.6046 20 21.5 19.1046 21.5 18V6C21.5 4.89543 20.6046 4 19.5 4H4.5ZM6.5 6.5H5V8H6.5V6.5ZM10.2789 16.294L12.2789 9.29396L13.7211 9.70604L11.7211 16.706L10.2789 16.294ZM8.46967 9.46967L5.82322 12.1161C5.33507 12.6043 5.33507 13.3957 5.82322 13.8839L8.46967 16.5303L9.53033 15.4697L7.06066 13L9.53033 10.5303L8.46967 9.46967ZM15.5303 9.46967L18.1768 12.1161C18.6649 12.6043 18.6649 13.3957 18.1768 13.8839L15.5303 16.5303L14.4697 15.4697L16.9393 13L14.4697 10.5303L15.5303 9.46967ZM7.5 6.5H9V8H7.5V6.5Z"></path>  <path fill-rule="evenodd" clip-rule="evenodd" d="M4.5 4C3.39543 4 2.5 4.89543 2.5 6V18C2.5 19.1046 3.39543 20 4.5 20H19.5C20.6046 20 21.5 19.1046 21.5 18V6C21.5 4.89543 20.6046 4 19.5 4H4.5ZM6.5 6.5H5V8H6.5V6.5ZM10.2789 16.294L12.2789 9.29396L13.7211 9.70604L11.7211 16.706L10.2789 16.294ZM8.46967 9.46967L5.82322 12.1161C5.33507 12.6043 5.33507 13.3957 5.82322 13.8839L8.46967 16.5303L9.53033 15.4697L7.06066 13L9.53033 10.5303L8.46967 9.46967ZM15.5303 9.46967L18.1768 12.1161C18.6649 12.6043 18.6649 13.3957 18.1768 13.8839L15.5303 16.5303L14.4697 15.4697L16.9393 13L14.4697 10.5303L15.5303 9.46967ZM7.5 6.5H9V8H7.5V6.5Z"></path></symbol>
  <symbol id="v-basic_close_line" xmlns="http://www.w3.org/2000/svg" viewBox="0 0 24 24" class="design-iconfont"><path fill-rule="evenodd" clip-rule="evenodd" d="M5.6506 19.3562C5.74248 19.3181 5.82485 19.2358 5.98959 19.071L12 13.0606L18.0103 19.071C18.1751 19.2357 18.2575 19.3181 18.3493 19.3562C18.4719 19.4069 18.6095 19.4069 18.732 19.3562C18.8239 19.3181 18.9063 19.2357 19.071 19.071C19.2357 18.9063 19.3181 18.8239 19.3562 18.732C19.4069 18.6095 19.4069 18.4719 19.3562 18.3493C19.3181 18.2575 19.2357 18.1751 19.071 18.0104L13.0606 12L19.0711 5.98957C19.2358 5.82483 19.3182 5.74246 19.3562 5.65058C19.407 5.52806 19.407 5.39041 19.3562 5.26789C19.3182 5.17601 19.2358 5.09364 19.0711 4.92891C18.9063 4.76417 18.824 4.6818 18.7321 4.64374C18.6096 4.593 18.4719 4.593 18.3494 4.64374C18.2575 4.6818 18.1751 4.76417 18.0104 4.92891L12 10.9393L5.98953 4.92887C5.8248 4.76414 5.74243 4.68177 5.65055 4.64371C5.52803 4.59296 5.39038 4.59296 5.26786 4.64371C5.17598 4.68177 5.09361 4.76414 4.92888 4.92887L4.92887 4.92887C4.76414 5.09361 4.68177 5.17598 4.64371 5.26786C4.59296 5.39038 4.59296 5.52803 4.64371 5.65055C4.68177 5.74243 4.76414 5.8248 4.92887 5.98954L10.9393 12L4.92893 18.0104C4.76419 18.1751 4.68182 18.2575 4.64376 18.3494C4.59302 18.4719 4.59302 18.6095 4.64376 18.7321C4.68182 18.8239 4.76419 18.9063 4.92893 19.071C5.09366 19.2358 5.17603 19.3181 5.26792 19.3562C5.39043 19.407 5.52808 19.407 5.6506 19.3562Z"></path></symbol>
  <symbol id="v-basic_copy_line" xmlns="http://www.w3.org/2000/svg" viewBox="0 0 24 24" class="design-iconfont">  <path d="M17.8 4.5H17.5H12.2H9.07965C9.11141 4.34666 9.15584 4.21397 9.21797 4.09202C9.40972 3.71569 9.71568 3.40973 10.092 3.21799C10.5198 3 11.0799 3 12.2 3H17.8C18.9201 3 19.4801 3 19.908 3.21799C20.2843 3.40973 20.5903 3.71569 20.782 4.09202C21 4.51984 21 5.0799 21 6.2V13.8C21 14.9201 21 15.4802 20.782 15.908C20.5903 16.2843 20.2843 16.5903 19.908 16.782C19.786 16.8441 19.6533 16.8886 19.5 16.9203V6.5L19.5 6.4921V6.2C19.5 5.6152 19.4988 5.26681 19.4777 5.00855C19.4648 4.85094 19.4478 4.78468 19.4423 4.76693C19.3953 4.67765 19.3223 4.60469 19.2331 4.55765C19.2153 4.55214 19.1491 4.53514 18.9914 4.52227C18.7332 4.50117 18.3848 4.5 17.8 4.5ZM19.2382 4.55945L19.2352 4.55833L19.2373 4.55905C19.238 4.5593 19.2383 4.55944 19.2382 4.55945ZM19.4408 4.76241C19.4406 4.76193 19.4405 4.76172 19.4405 4.76175L19.4417 4.76478C19.4413 4.76369 19.441 4.76291 19.4408 4.76241ZM6.2 7.5C5.6152 7.5 5.26681 7.50117 5.00855 7.52227C4.85093 7.53514 4.78468 7.55214 4.76692 7.55765C4.67765 7.60469 4.60469 7.67765 4.55765 7.76693C4.55214 7.78468 4.53514 7.85093 4.52227 8.00855C4.50117 8.26681 4.5 8.6152 4.5 9.2V17.8C4.5 18.3848 4.50117 18.7332 4.52227 18.9914C4.53514 19.1491 4.55214 19.2153 4.55765 19.2331C4.60469 19.3224 4.67765 19.3953 4.76692 19.4424C4.78468 19.4479 4.85093 19.4649 5.00855 19.4777C5.26681 19.4988 5.6152 19.5 6.2 19.5H14.8C15.3848 19.5 15.7332 19.4988 15.9914 19.4777C16.1491 19.4649 16.2153 19.4479 16.2331 19.4424C16.3224 19.3953 16.3953 19.3224 16.4424 19.2331C16.4479 19.2153 16.4649 19.1491 16.4777 18.9914C16.4988 18.7332 16.5 18.3848 16.5 17.8V9.2C16.5 8.6152 16.4988 8.26681 16.4777 8.00855C16.4649 7.85093 16.4479 7.78468 16.4424 7.76693C16.3953 7.67765 16.3224 7.60469 16.2331 7.55765C16.2153 7.55214 16.1491 7.53514 15.9914 7.52227C15.7332 7.50117 15.3848 7.5 14.8 7.5H6.2ZM16.2383 7.55945L16.2352 7.55833C16.2374 7.55904 16.2383 7.55943 16.2383 7.55945ZM16.4405 7.76175C16.4406 7.76169 16.441 7.76265 16.4417 7.76478L16.4405 7.76175ZM16.4405 19.2383L16.4417 19.2352C16.441 19.2373 16.4406 19.2383 16.4405 19.2383ZM16.2383 19.4405C16.2383 19.4406 16.2373 19.441 16.2352 19.4417L16.2383 19.4405ZM4.76175 19.4405L4.76477 19.4417C4.76264 19.441 4.76169 19.4406 4.76175 19.4405ZM4.55945 19.2383C4.55943 19.2383 4.55904 19.2374 4.55833 19.2352L4.55945 19.2383ZM4.55945 7.76175L4.55833 7.76478C4.55904 7.76264 4.55943 7.76169 4.55945 7.76175ZM4.76175 7.55945C4.76169 7.55943 4.76264 7.55904 4.76478 7.55833L4.76175 7.55945ZM3 9.2C3 8.0799 3 7.51984 3.21799 7.09202C3.40973 6.71569 3.71569 6.40973 4.09202 6.21799C4.51984 6 5.0799 6 6.2 6H14.8C15.9201 6 16.4802 6 16.908 6.21799C17.2843 6.40973 17.5903 6.71569 17.782 7.09202C18 7.51984 18 8.0799 18 9.2V17.8C18 18.9201 18 19.4802 17.782 19.908C17.5903 20.2843 17.2843 20.5903 16.908 20.782C16.4802 21 15.9201 21 14.8 21H6.2C5.07989 21 4.51984 21 4.09202 20.782C3.71569 20.5903 3.40973 20.2843 3.21799 19.908C3 19.4802 3 18.9201 3 17.8V9.2Z"></path></symbol>
  <symbol id="v-basic_edit_line" xmlns="http://www.w3.org/2000/svg" viewBox="0 0 24 24" class="design-iconfont">  <path d="M19.2529 3.1474C19.4509 2.94939 19.5499 2.85038 19.6641 2.81329C19.7645 2.78066 19.8727 2.78066 19.9731 2.81329C20.0873 2.85038 20.1863 2.94939 20.3843 3.1474L20.6671 3.43024C20.8651 3.62825 20.9641 3.72725 21.0012 3.84142C21.0339 3.94184 21.0339 4.05001 21.0012 4.15043C20.9641 4.2646 20.8651 4.3636 20.6671 4.56161L19.8186 5.41014L18.4044 3.99593L19.2529 3.1474ZM17.3437 5.05659L18.7579 6.4708L12.8414 12.3873C12.5052 12.7235 12.3371 12.8916 12.1578 13.0448C11.8178 13.3352 11.4463 13.5866 11.0505 13.7945C10.8416 13.9041 10.6231 13.9978 10.1861 14.1851C9.95015 14.2862 9.83218 14.3367 9.75719 14.3302C9.61203 14.3176 9.49694 14.2025 9.48431 14.0573C9.47779 13.9824 9.52835 13.8644 9.62948 13.6284C9.81676 13.1914 9.91041 12.9729 10.0201 12.7641C10.2279 12.3682 10.4794 11.9968 10.7697 11.6568C10.9229 11.4774 11.091 11.3093 11.4272 10.9731L17.3437 5.05659ZM5 3.99999H13H13.25C13.483 3.99999 13.5995 3.99999 13.6913 4.03805C13.8139 4.08879 13.9112 4.18613 13.9619 4.30864C14 4.40053 14 4.51701 14 4.74999C14 4.98296 14 5.09944 13.9619 5.19133C13.9112 5.31384 13.8139 5.41118 13.6913 5.46193C13.5995 5.49999 13.483 5.49999 13.25 5.49999H13H5C4.72386 5.49999 4.5 5.72384 4.5 5.99999V19C4.5 19.2761 4.72386 19.5 5 19.5H18C18.2761 19.5 18.5 19.2761 18.5 19V11V10.75C18.5 10.517 18.5 10.4005 18.5381 10.3086C18.5888 10.1861 18.6861 10.0888 18.8087 10.038C18.9005 9.99999 19.017 9.99999 19.25 9.99999C19.483 9.99999 19.5995 9.99999 19.6913 10.038C19.8139 10.0888 19.9112 10.1861 19.9619 10.3086C20 10.4005 20 10.517 20 10.75V11V19C20 20.1046 19.1046 21 18 21H5C3.89543 21 3 20.1046 3 19V5.99999C3 4.89542 3.89543 3.99999 5 3.99999Z"></path></symbol>
  <symbol id="v-basic_file_line" xmlns="http://www.w3.org/2000/svg" viewBox="0 0 24 24" class="design-iconfont">  <path d="M11.2166 3.29469C11.0376 3.18503 10.8425 3.10422 10.6384 3.05523C10.4658 3.01379 10.2851 3.00343 9.99912 3.00084L4.75297 3.00061L4.33475 3.00578C3.75709 3.01942 3.39202 3.06509 3.09199 3.21796C2.71566 3.4097 2.4097 3.71566 2.21796 4.09199C2.06509 4.39202 2.01942 4.75709 2.00578 5.33475L2.00061 5.75297V17.247L2.00578 17.6652C2.01942 18.2429 2.06509 18.608 2.21796 18.908C2.4097 19.2843 2.71566 19.5903 3.09199 19.782C3.3059 19.891 3.55287 19.9455 3.88638 19.9727L4.19468 19.99L4.75297 19.9993H19.247L19.8053 19.99L20.1136 19.9727C20.4471 19.9455 20.6941 19.891 20.908 19.782C21.2843 19.5903 21.5903 19.2843 21.782 18.908C21.891 18.6941 21.9455 18.4471 21.9727 18.1136L21.99 17.8053L21.9993 17.247V8.75297L21.99 8.19468L21.9727 7.88638C21.9455 7.55287 21.891 7.3059 21.782 7.09199C21.5903 6.71566 21.2843 6.4097 20.908 6.21796C20.608 6.06509 20.2429 6.01942 19.6652 6.00578L19.247 6.00061L14 5.99997L11.8153 3.81538L11.6104 3.61453L11.4421 3.46114C11.3639 3.39438 11.2923 3.34107 11.2166 3.29469ZM4.60422 4.50174L9.99905 4.50084L10.2083 4.50593L10.2883 4.5138C10.3393 4.52604 10.3881 4.54625 10.433 4.57375L10.5617 4.68695L12.9393 7.06066L13.0493 7.16028C13.3162 7.37894 13.6518 7.49993 13.9998 7.49997L19.401 7.50176L19.7703 7.5094L20.0164 7.52195L20.1614 7.53757L20.2126 7.5488L20.227 7.55446C20.3211 7.60241 20.3975 7.67888 20.4454 7.77284L20.4572 7.80771L20.4727 7.9113L20.4851 8.09876L20.499 8.82591L20.5 16.8L20.4961 17.4773L20.4851 17.9012L20.4727 18.0886L20.4573 18.1921L20.4455 18.2269C20.3975 18.3211 20.3211 18.3975 20.2271 18.4454L20.1922 18.4572L20.0887 18.4727L19.9012 18.4851L19.174 18.499L5.19997 18.5L4.52266 18.4961L4.09878 18.4851L3.91136 18.4727L3.80783 18.4573L3.77302 18.4455C3.67888 18.3975 3.60241 18.3211 3.55447 18.227C3.55259 18.2233 3.5507 18.2185 3.54881 18.2126L3.53758 18.1613L3.52195 18.0158L3.5094 17.768L3.50174 17.3957V5.5988L3.5094 5.22964L3.52195 4.98351L3.53758 4.83858L3.54881 4.78739L3.55447 4.77299C3.60241 4.67889 3.67889 4.60241 3.77295 4.55449C3.77664 4.55261 3.7814 4.55072 3.78736 4.54883L3.83865 4.53759L3.98418 4.52195L4.23192 4.5094L4.60422 4.50174ZM5.53806 7.30866C5.5 7.40054 5.5 7.51703 5.5 7.75C5.5 7.98297 5.5 8.09946 5.53806 8.19134C5.58881 8.31386 5.68614 8.41119 5.80866 8.46194C5.90054 8.5 6.01703 8.5 6.25 8.5H11L9.5 7H6.25C6.01703 7 5.90054 7 5.80866 7.03806C5.68614 7.08881 5.58881 7.18614 5.53806 7.30866Z"></path></symbol>
  <symbol id="v-basic_forward_line" xmlns="http://www.w3.org/2000/svg" viewBox="0 0 24 24" class="fr8tut7i1__design-iconfont">  <path d="M13.5 9.74837H11.3126C7.04125 9.74837 3.52234 12.97 3.05314 17.1159C5.23979 15.2808 8.02295 14.2484 10.9309 14.2484H13.5V19.0477L21.0516 11.9985L13.5 4.95134V9.74837ZM3 19.2392C2.98827 19.252 2.97658 19.2649 2.96491 19.2777C2.8857 19.3651 2.80781 19.4539 2.73127 19.5441C2.63927 19.6525 2.54923 19.7629 2.46121 19.8754C2.14618 20.278 1.5 20.0553 1.5 19.5441V18.061C1.5 12.6416 5.89325 8.24837 11.3126 8.24837H12V4.72538C12 3.49972 13.4621 2.86429 14.3582 3.70052L22.1519 10.9737C22.7457 11.5278 22.7458 12.469 22.1521 13.0232L14.3583 20.2984C13.4623 21.1348 12 20.4994 12 19.2737V15.7484H10.9309C10.7869 15.7484 10.6432 15.7513 10.5 15.757C7.63098 15.8718 4.93173 17.1297 3 19.2392Z"></path></symbol>
  <symbol id="v-basic_grid_view_line" xmlns="http://www.w3.org/2000/svg" viewBox="0 0 24 24" class="design-iconfont">  <path d="M5 4.5C4.72386 4.5 4.5 4.72386 4.5 5V9C4.5 9.27614 4.72386 9.5 5 9.5H9C9.27614 9.5 9.5 9.27614 9.5 9V5C9.5 4.72386 9.27614 4.5 9 4.5H5ZM3 5C3 3.89543 3.89543 3 5 3H9C10.1046 3 11 3.89543 11 5V9C11 10.1046 10.1046 11 9 11H5C3.89543 11 3 10.1046 3 9V5ZM15 4.5C14.7239 4.5 14.5 4.72386 14.5 5V9C14.5 9.27614 14.7239 9.5 15 9.5H19C19.2761 9.5 19.5 9.27614 19.5 9V5C19.5 4.72386 19.2761 4.5 19 4.5H15ZM13 5C13 3.89543 13.8954 3 15 3H19C20.1046 3 21 3.89543 21 5V9C21 10.1046 20.1046 11 19 11H15C13.8954 11 13 10.1046 13 9V5ZM9 14.5C9.27614 14.5 9.5 14.7239 9.5 15V19C9.5 19.2761 9.27614 19.5 9 19.5H5C4.72386 19.5 4.5 19.2761 4.5 19V15C4.5 14.7239 4.72386 14.5 5 14.5H9ZM5 13C3.89543 13 3 13.8954 3 15V19C3 20.1046 3.89543 21 5 21H9C10.1046 21 11 20.1046 11 19V15C11 13.8954 10.1046 13 9 13H5ZM15 14.5C14.7239 14.5 14.5 14.7239 14.5 15V19C14.5 19.2761 14.7239 19.5 15 19.5H19C19.2761 19.5 19.5 19.2761 19.5 19V15C19.5 14.7239 19.2761 14.5 19 14.5H15ZM13 15C13 13.8954 13.8954 13 15 13H19C20.1046 13 21 13.8954 21 15V19C21 20.1046 20.1046 21 19 21H15C13.8954 21 13 20.1046 13 19V15Z"></path></symbol>
  <symbol id="v-basic_new_line" xmlns="http://www.w3.org/2000/svg" viewBox="0 0 24 24" class="design-iconfont"><path fill-rule="evenodd" clip-rule="evenodd" d="M12.1227 2C12.3292 2 12.4127 2.02321 12.4942 2.06678C12.5757 2.11036 12.6396 2.17431 12.6832 2.25579C12.7268 2.33727 12.75 2.42083 12.75 2.6273V11.25H21.3727C21.5792 11.25 21.6627 11.2732 21.7442 11.3168C21.8257 11.3604 21.8896 11.4243 21.9332 11.5058C21.9681 11.571 21.9899 11.6375 21.9972 11.7672L22 12.1227C22 12.3292 21.9768 12.4127 21.9332 12.4942C21.8896 12.5757 21.8257 12.6396 21.7442 12.6832C21.6627 12.7268 21.5792 12.75 21.3727 12.75H12.749L12.75 21.3727C12.75 21.5792 12.7268 21.6627 12.6832 21.7442C12.6396 21.8257 12.5757 21.8896 12.4942 21.9332C12.429 21.9681 12.3625 21.9899 12.2328 21.9972L11.8773 22C11.6708 22 11.5873 21.9768 11.5058 21.9332C11.4243 21.8896 11.3604 21.8257 11.3168 21.7442C11.2732 21.6627 11.25 21.5792 11.25 21.3727L11.249 12.75H2.6273C2.42083 12.75 2.33727 12.7268 2.25579 12.6832C2.17431 12.6396 2.11036 12.5757 2.06678 12.4942C2.02321 12.4127 2 12.3292 2 12.1227V11.8773C2 11.6708 2.02321 11.5873 2.06678 11.5058C2.11036 11.4243 2.17431 11.3604 2.25579 11.3168C2.33727 11.2732 2.42083 11.25 2.6273 11.25H11.25V2.6273C11.25 2.42083 11.2732 2.33727 11.3168 2.25579C11.3604 2.17431 11.4243 2.11036 11.5058 2.06678C11.5873 2.02321 11.6708 2 11.8773 2H12.1227Z"></path></symbol>
  <symbol id="v-basic_newchat_line" xmlns="http://www.w3.org/2000/svg" fill="none" viewBox="0 0 20 20" class="e48cyl4if__design-iconfont">  <path d="M10.5 4.16699H4.75098C4.26409 4.16699 3.97305 4.16799 3.75781 4.18555C3.55762 4.20192 3.53445 4.22664 3.56152 4.21289L3.56055 4.21191C3.48267 4.25177 3.41876 4.31568 3.37891 4.39355C3.39222 4.36709 3.36883 4.39158 3.35254 4.59082C3.33497 4.80609 3.33398 5.0969 3.33398 5.58398V15.2568L4.54492 14.3975L4.87012 14.167H15.251C15.7376 14.167 16.0282 14.166 16.2432 14.1484C16.4425 14.1321 16.4661 14.1076 16.4395 14.1211C16.5176 14.0811 16.5822 14.0177 16.6221 13.9395C16.6081 13.9668 16.632 13.9436 16.6484 13.7432C16.666 13.5279 16.667 13.2372 16.667 12.75V10.5H17.917V12.75C17.917 13.6833 17.917 14.1503 17.7354 14.5068C17.5756 14.8203 17.3203 15.0756 17.0068 15.2354C16.6505 15.4168 16.1835 15.417 15.251 15.417H5.26855L2.08398 17.6787V5.58398C2.08398 4.65067 2.08403 4.18365 2.26562 3.82715C2.42541 3.51355 2.68054 3.25842 2.99414 3.09863C3.35061 2.91718 3.81791 2.91699 4.75098 2.91699H10.5V4.16699ZM16.125 2C16.2631 2 16.375 2.11193 16.375 2.25V4.625H18.75C18.8881 4.625 19 4.73693 19 4.875V5.625C19 5.76307 18.8881 5.875 18.75 5.875H16.375V8.25C16.375 8.38807 16.2631 8.5 16.125 8.5H15.375C15.2369 8.5 15.125 8.38807 15.125 8.25V5.875H12.75C12.6119 5.875 12.5 5.76307 12.5 5.625V4.875C12.5 4.73693 12.6119 4.625 12.75 4.625H15.125V2.25C15.125 2.11193 15.2369 2 15.375 2H16.125Z" fill="currentColor"></path></symbol>
  <symbol id="v-basic_password_on_line" xmlns="http://www.w3.org/2000/svg" viewBox="0 0 24 24" class="design-iconfont"><path d="M12.0039 5C18.5663 5 23 10.2445 23 11.871C23 13.4975 18.5744 18.75 12.0039 18.75C5.5217 18.75 1 13.4977 1 11.871C1 10.2445 5.5299 5.00017 12.0039 5ZM12.0039 6.5C9.44059 6.5 7.00164 7.44471 4.9967 9.00843C4.18394 9.64234 3.49711 10.3427 3.02052 10.9956C2.95738 11.0821 2.9 11.1655 2.84836 11.244L2.71068 11.4638L2.60746 11.6456L2.53868 11.7797L2.5043 11.8568C2.50143 11.8644 2.5 11.8692 2.5 11.871L2.51719 11.9165L2.56876 12.0239L2.65473 12.1835L2.77514 12.3859C2.84395 12.4963 2.92567 12.6191 3.02033 12.7491C3.49647 13.4029 4.18259 14.104 4.99468 14.7385C6.99855 16.3043 9.43749 17.25 12.0039 17.25C14.609 17.25 17.0496 16.3061 19.0385 14.7415C19.8419 14.1095 20.5183 13.4107 20.9872 12.7574C21.0494 12.6708 21.1059 12.5872 21.1568 12.5084L21.2924 12.2875L21.3941 12.1042L21.4831 11.9198L21.5 11.871L21.4831 11.8227L21.4322 11.7135L21.3475 11.5529L21.2288 11.3501C21.1609 11.2397 21.0804 11.1169 20.987 10.9872C20.5177 10.3347 19.8406 9.63673 19.0365 9.00535C17.1413 7.51723 14.8374 6.5912 12.3745 6.50638L12.0039 6.5ZM12.0024 8C14.2186 8 16 9.77786 16 11.9976C16 14.1932 14.2106 16 12.0024 16C9.78929 16 8.00769 14.1989 8.00009 12.0077C7.98522 9.78166 9.77504 8 12.0024 8ZM12.0024 9.5C10.607 9.5 9.49075 10.6044 9.50006 11.9976C9.50478 13.3583 10.607 14.5 12.0024 14.5C13.3885 14.5 14.5 13.3583 14.5 11.9976C14.5 10.6044 13.3883 9.5 12.0024 9.5Z"></path></symbol>
  <symbol id="v-basic_picture_line" xmlns="http://www.w3.org/2000/svg" viewBox="0 0 24 24" class="design-iconfont">  <path d="M5.2 5.5C4.6152 5.5 4.26681 5.50117 4.00855 5.52227C3.85093 5.53514 3.78468 5.55214 3.76692 5.55765C3.67765 5.60469 3.60469 5.67765 3.55765 5.76693C3.55214 5.78468 3.53514 5.85093 3.52227 6.00855C3.50117 6.26681 3.5 6.6152 3.5 7.2V14.4187L6.43448 11.0635L6.99885 10.4182L7.56341 11.0633L9.70555 13.5111L14.1759 8.86542L14.722 8.29785L15.2622 8.87112L20.5 14.4301V7.2C20.5 6.6152 20.4988 6.26681 20.4777 6.00855C20.4649 5.85094 20.4479 5.78469 20.4424 5.76693C20.3953 5.67765 20.3224 5.60469 20.2331 5.55765C20.2153 5.55214 20.1491 5.53514 19.9914 5.52227C19.7332 5.50117 19.3848 5.5 18.8 5.5H5.2ZM3.5 16.6806V16.8C3.5 17.3848 3.50117 17.7332 3.52227 17.9914C3.53514 18.1491 3.55214 18.2153 3.55765 18.2331C3.60469 18.3224 3.67765 18.3953 3.76693 18.4424C3.78469 18.4479 3.85094 18.4649 4.00855 18.4777C4.26681 18.4988 4.6152 18.5 5.2 18.5H18.8C19.3848 18.5 19.7332 18.4988 19.9914 18.4777C20.1491 18.4649 20.2153 18.4479 20.2331 18.4424C20.3224 18.3953 20.3953 18.3224 20.4424 18.2331C20.4479 18.2153 20.4649 18.1491 20.4777 17.9914C20.4988 17.7332 20.5 17.3848 20.5 16.8V16.579L19.5627 15.6224L19.5576 15.6172L19.5525 15.6118L14.7106 10.473L10.2198 15.14L9.65314 15.7289L9.11495 15.1139L6.99919 12.6963L4.49354 15.5611L4.48994 15.5653L4.48992 15.5653L3.5 16.6806ZM20.2383 5.55945L20.2352 5.55834C20.2374 5.55904 20.2383 5.55943 20.2383 5.55945ZM20.4405 5.76175C20.4406 5.76169 20.441 5.76263 20.4417 5.76475L20.4405 5.76175ZM20.4405 18.2382L20.4417 18.2353C20.4409 18.2374 20.4406 18.2383 20.4405 18.2382ZM20.2382 18.4405C20.2383 18.4406 20.2374 18.4409 20.2353 18.4417L20.2382 18.4405ZM3.76175 18.4405L3.76478 18.4417C3.76265 18.441 3.76169 18.4406 3.76175 18.4405ZM3.55945 18.2383C3.55943 18.2383 3.55904 18.2374 3.55833 18.2352L3.55945 18.2383ZM3.55945 5.76175L3.55833 5.76478C3.55904 5.76264 3.55943 5.76169 3.55945 5.76175ZM3.76175 5.55945C3.76169 5.55943 3.76264 5.55904 3.76478 5.55833L3.76175 5.55945ZM2 7.2C2 6.0799 2 5.51984 2.21799 5.09202C2.40973 4.71569 2.71569 4.40973 3.09202 4.21799C3.51984 4 4.0799 4 5.2 4H18.8C19.9201 4 20.4802 4 20.908 4.21799C21.2843 4.40973 21.5903 4.71569 21.782 5.09202C22 5.51984 22 6.0799 22 7.2V16.8C22 17.9201 22 18.4802 21.782 18.908C21.5903 19.2843 21.2843 19.5903 20.908 19.782C20.4802 20 19.9201 20 18.8 20H5.2C4.0799 20 3.51984 20 3.09202 19.782C2.71569 19.5903 2.40973 19.2843 2.21799 18.908C2 18.4802 2 17.9201 2 16.8V7.2Z"></path></symbol>
  <symbol id="v-basic_refresh_line" xmlns="http://www.w3.org/2000/svg" viewBox="0 0 24 24" class="design-iconfont">  <path fill-rule="evenodd" clip-rule="evenodd" d="M12 20.5C7.30558 20.5 3.5 16.6944 3.5 12C3.5 7.30558 7.30558 3.5 12 3.5C15.0419 3.5 17.7105 5.09785 19.2124 7.5H16.25C16.017 7.5 15.9005 7.5 15.8087 7.53806C15.6861 7.58881 15.5888 7.68614 15.5381 7.80866C15.5 7.90054 15.5 8.01703 15.5 8.25C15.5 8.48297 15.5 8.59946 15.5381 8.69134C15.5888 8.81386 15.6861 8.91119 15.8087 8.96194C15.9005 9 16.017 9 16.25 9H20H20.5H21.5V3.25C21.5 3.01703 21.5 2.90054 21.4619 2.80866C21.4112 2.68614 21.3139 2.58881 21.1913 2.53806C21.0995 2.5 20.983 2.5 20.75 2.5C20.517 2.5 20.4005 2.5 20.3087 2.53806C20.1861 2.58881 20.0888 2.68614 20.0381 2.80866C20 2.90054 20 3.01703 20 3.25V5.99902C18.1755 3.57069 15.2712 2 12 2C6.47715 2 2 6.47715 2 12C2 17.5228 6.47715 22 12 22C16.8379 22 20.8734 18.5645 21.8 14H20.2634C19.364 17.7294 16.0055 20.5 12 20.5Z"></path></symbol>
  <symbol id="v-basic_relation_line" xmlns="http://www.w3.org/2000/svg" viewBox="0 0 24 24" class="m6vyx17nu__design-iconfont">  <path fill-rule="evenodd" clip-rule="evenodd" d="M4.5 3.25C4.08579 3.25 3.75 3.58579 3.75 4V13.5C3.75 13.9142 4.08579 14.25 4.5 14.25H7V15.75H4.5C3.25736 15.75 2.25 14.7426 2.25 13.5V4C2.25 2.75736 3.25736 1.75 4.5 1.75H13.5C14.7426 1.75 15.75 2.75736 15.75 4V13C15.75 14.5188 14.5188 15.75 13 15.75H11V14.25H13C13.6904 14.25 14.25 13.6904 14.25 13V4C14.25 3.58579 13.9142 3.25 13.5 3.25H4.5ZM10.5 9.75C10.0858 9.75 9.75 10.0858 9.75 10.5V20C9.75 20.4142 10.0858 20.75 10.5 20.75H19.5C19.9142 20.75 20.25 20.4142 20.25 20V10.5C20.25 10.0858 19.9142 9.75 19.5 9.75H17V8.25H19.5C20.7426 8.25 21.75 9.25736 21.75 10.5V20C21.75 21.2426 20.7426 22.25 19.5 22.25H10.5C9.25736 22.25 8.25 21.2426 8.25 20V10.5C8.25 9.25736 9.25736 8.25 10.5 8.25H13V9.75H10.5Z"></path></symbol>
  <symbol id="v-basic_scan_line" xmlns="http://www.w3.org/2000/svg" fill="none" viewBox="0 0 128 128" class="wxmsnkfxj__design-iconfont">  <path fill-rule="evenodd" clip-rule="evenodd" d="M41.3333 16H33.0667C27.0928 16 24.1058 16 21.8241 17.1626C19.817 18.1852 18.1852 19.817 17.1626 21.8241C16 24.1058 16 27.0928 16 33.0667V41.3333V42.6667V44C16 45.2425 16 45.8638 16.203 46.3538C16.4736 47.0072 16.9928 47.5264 17.6462 47.797C18.1362 48 18.7575 48 20 48C21.2425 48 21.8638 48 22.3538 47.797C23.0072 47.5264 23.5264 47.0072 23.797 46.3538C24 45.8638 24 45.2425 24 44V42.6667V41.3333V33.0667C24 29.9477 24.0062 28.0896 24.1188 26.7123C24.1874 25.8717 24.2781 25.5183 24.3075 25.4236C24.5583 24.9475 24.9474 24.5583 25.4236 24.3075C25.5183 24.2781 25.8716 24.1874 26.7123 24.1188C28.0896 24.0062 29.9477 24 33.0667 24H41.3333H42.6667H44C45.2425 24 45.8638 24 46.3538 23.797C47.0072 23.5264 47.5264 23.0072 47.797 22.3538C48 21.8638 48 21.2425 48 20C48 18.7575 48 18.1362 47.797 17.6462C47.5264 16.9928 47.0072 16.4736 46.3538 16.203C45.8638 16 45.2425 16 44 16H42.6667H41.3333ZM41.3333 104H33.0667C29.9477 104 28.0896 103.994 26.7123 103.881C25.8717 103.813 25.5183 103.722 25.4236 103.693C24.9475 103.442 24.5583 103.053 24.3075 102.576C24.2781 102.482 24.1874 102.128 24.1188 101.288C24.0062 99.9104 24 98.0523 24 94.9333V86.6667V85.3333V84C24 82.7575 24 82.1362 23.797 81.6462C23.5264 80.9928 23.0072 80.4736 22.3538 80.203C21.8638 80 21.2425 80 20 80C18.7575 80 18.1362 80 17.6462 80.203C16.9928 80.4736 16.4736 80.9928 16.203 81.6462C16 82.1362 16 82.7575 16 84V85.3333V86.6667V94.9333C16 100.907 16 103.894 17.1626 106.176C18.1852 108.183 19.817 109.815 21.8241 110.837C24.1058 112 27.0928 112 33.0667 112H41.3333H42.6667H44C45.2425 112 45.8638 112 46.3538 111.797C47.0072 111.526 47.5264 111.007 47.797 110.354C48 109.864 48 109.243 48 108C48 106.757 48 106.136 47.797 105.646C47.5264 104.993 47.0072 104.474 46.3538 104.203C45.8638 104 45.2425 104 44 104H42.6667H41.3333ZM94.9333 112H86.6667H85.3333H84C82.7575 112 82.1362 112 81.6462 111.797C80.9928 111.526 80.4736 111.007 80.203 110.354C80 109.864 80 109.243 80 108C80 106.757 80 106.136 80.203 105.646C80.4736 104.993 80.9928 104.474 81.6462 104.203C82.1362 104 82.7575 104 84 104H85.3333H86.6667H94.9333C98.0523 104 99.9104 103.994 101.288 103.881C102.128 103.813 102.482 103.722 102.576 103.693C103.053 103.442 103.442 103.053 103.693 102.576C103.722 102.482 103.813 102.128 103.881 101.288C103.994 99.9104 104 98.0523 104 94.9333V86.6667V85.3333V84C104 82.7575 104 82.1362 104.203 81.6462C104.474 80.9928 104.993 80.4736 105.646 80.203C106.136 80 106.757 80 108 80C109.243 80 109.864 80 110.354 80.203C111.007 80.4736 111.526 80.9928 111.797 81.6462C112 82.1362 112 82.7575 112 84V85.3333V86.6667V94.9333C112 100.907 112 103.894 110.837 106.176C109.815 108.183 108.183 109.815 106.176 110.837C103.894 112 100.907 112 94.9333 112ZM86.6667 16H94.9333C100.907 16 103.894 16 106.176 17.1626C108.183 18.1852 109.815 19.817 110.837 21.8241C112 24.1058 112 27.0928 112 33.0667V41.3333V42.6667V44C112 45.2425 112 45.8638 111.797 46.3538C111.526 47.0072 111.007 47.5264 110.354 47.797C109.864 48 109.243 48 108 48C106.757 48 106.136 48 105.646 47.797C104.993 47.5264 104.474 47.0072 104.203 46.3538C104 45.8638 104 45.2425 104 44V42.6667V41.3333V33.0667C104 29.9477 103.994 28.0896 103.881 26.7123C103.813 25.8717 103.722 25.5183 103.693 25.4236C103.442 24.9475 103.053 24.5583 102.576 24.3075C102.482 24.2781 102.128 24.1874 101.288 24.1188C99.9104 24.0062 98.0523 24 94.9333 24H86.6667H85.3333H84C82.7575 24 82.1362 24 81.6462 23.797C80.9928 23.5264 80.4736 23.0072 80.203 22.3538C80 21.8638 80 21.2425 80 20C80 18.7575 80 18.1362 80.203 17.6462C80.4736 16.9928 80.9928 16.4736 81.6462 16.203C82.1362 16 82.7575 16 84 16H85.3333H86.6667ZM102.604 24.3171L102.588 24.3111C102.599 24.3149 102.604 24.317 102.604 24.3171ZM103.683 25.396C103.683 25.3957 103.685 25.4007 103.689 25.412L103.683 25.396ZM103.683 102.604L103.689 102.588C103.685 102.6 103.683 102.604 103.683 102.604ZM102.604 103.683C102.604 103.683 102.599 103.685 102.588 103.689L102.604 103.683ZM25.396 103.683L25.4121 103.689L25.4011 103.685C25.3975 103.684 25.3958 103.683 25.396 103.683ZM24.3171 102.604C24.317 102.604 24.3149 102.599 24.3112 102.588L24.3171 102.604ZM24.3171 25.396L24.3111 25.4122C24.3149 25.4008 24.317 25.3957 24.3171 25.396ZM25.396 24.3171C25.3957 24.317 25.4008 24.3149 25.4121 24.3111L25.396 24.3171ZM16 64C16 62.7575 16 62.1362 16.203 61.6462C16.4736 60.9928 16.9928 60.4736 17.6462 60.203C18.1362 60 18.7575 60 20 60H108C109.243 60 109.864 60 110.354 60.203C111.007 60.4736 111.526 60.9928 111.797 61.6462C112 62.1362 112 62.7575 112 64C112 65.2425 112 65.8638 111.797 66.3538C111.526 67.0072 111.007 67.5264 110.354 67.797C109.864 68 109.243 68 108 68H20C18.7575 68 18.1362 68 17.6462 67.797C16.9928 67.5264 16.4736 67.0072 16.203 66.3538C16 65.8638 16 65.2425 16 64Z" fill="currentColor"></path></symbol>
  <symbol id="v-basic_search_line" xmlns="http://www.w3.org/2000/svg" viewBox="0 0 24 24" class="design-iconfont">  <path d="M18.5 11C18.5 6.85786 15.1421 3.5 11 3.5C6.85786 3.5 3.5 6.85786 3.5 11C3.5 15.1421 6.85786 18.5 11 18.5C15.1421 18.5 18.5 15.1421 18.5 11ZM16.8116 17.8723C15.2436 19.1996 13.2153 20 11 20C6.02944 20 2 15.9706 2 11C2 6.02944 6.02944 2 11 2C15.9706 2 20 6.02944 20 11C20 13.2153 19.1996 15.2436 17.8723 16.8117L21.6065 20.5459C21.7713 20.7107 21.8536 20.793 21.8917 20.8849C21.9425 21.0074 21.9425 21.1451 21.8917 21.2676C21.8536 21.3595 21.7713 21.4419 21.6065 21.6066C21.4418 21.7713 21.3594 21.8537 21.2676 21.8918C21.145 21.9425 21.0074 21.9425 20.8849 21.8918C20.793 21.8537 20.7106 21.7713 20.5459 21.6066L16.8116 17.8723Z"></path></symbol>
  <symbol id="v-basic_sidebarchat_line" xmlns="http://www.w3.org/2000/svg" fill="none" viewBox="0 0 16 16" class="zht3ccnhb__design-iconfont">  <path fill-rule="evenodd" clip-rule="evenodd" d="M2.06102 2.81134C1.81014 2.93917 1.60616 3.14315 1.47833 3.39403C1.33301 3.67924 1.33301 4.05261 1.33301 4.79935V11.1993C1.33301 11.9461 1.33301 12.3195 1.47833 12.6047C1.60616 12.8556 1.81014 13.0595 2.06102 13.1874C2.34624 13.3327 2.7196 13.3327 3.46634 13.3327H12.533C13.2797 13.3327 13.6531 13.3327 13.9383 13.1874C14.1892 13.0595 14.3932 12.8556 14.521 12.6047C14.6663 12.3195 14.6663 11.9461 14.6663 11.1993V4.79935C14.6663 4.05261 14.6663 3.67924 14.521 3.39403C14.3932 3.14315 14.1892 2.93917 13.9383 2.81134C13.6531 2.66602 13.2797 2.66602 12.533 2.66602H3.46634C2.7196 2.66602 2.34624 2.66602 2.06102 2.81134ZM12.533 12.3327H7.33301L7.33301 3.66602H12.533C12.9229 3.66602 13.1551 3.66679 13.3273 3.68086C13.4324 3.68945 13.4766 3.70077 13.4884 3.70445C13.5479 3.73581 13.5966 3.78445 13.6279 3.84397C13.6316 3.85581 13.6429 3.89998 13.6515 4.00505C13.6656 4.17722 13.6663 4.40948 13.6663 4.79935V11.1993C13.6663 11.5892 13.6656 11.8215 13.6515 11.9936C13.6429 12.0987 13.6316 12.1429 13.6279 12.1547C13.5966 12.2143 13.5479 12.2629 13.4884 12.2943C13.4766 12.2979 13.4324 12.3093 13.3273 12.3178C13.1551 12.3319 12.9229 12.3327 12.533 12.3327ZM6.33301 12.3327L6.33301 3.66602H3.46634C3.07647 3.66602 2.84421 3.66679 2.67204 3.68086C2.56696 3.68945 2.5228 3.70077 2.51096 3.70445C2.45144 3.73581 2.4028 3.78445 2.37144 3.84397C2.36777 3.8558 2.35644 3.89997 2.34785 4.00505C2.33379 4.17722 2.33301 4.40948 2.33301 4.79935V11.1993C2.33301 11.5892 2.33379 11.8215 2.34785 11.9936C2.35644 12.0987 2.36777 12.1429 2.37144 12.1547C2.4028 12.2143 2.45144 12.2629 2.51096 12.2943C2.5228 12.2979 2.56696 12.3093 2.67204 12.3178C2.84421 12.3319 3.07647 12.3327 3.46634 12.3327H6.33301ZM13.6267 12.1582L13.6275 12.1561L13.6271 12.1572L13.6267 12.1582Z" fill="currentColor"></path></symbol>
  <symbol id="v-basic_thumbsdown_fill" xmlns="http://www.w3.org/2000/svg" viewBox="0 0 24 24" class="ak2woq8t4__design-iconfont">  <path fill-rule="evenodd" clip-rule="evenodd" d="M12.4925 22.0592L12.4931 22.0605L12.7744 22.67L13.4113 22.4577C15.4611 21.7745 16.5689 19.5588 15.8856 17.509L15.3813 15.9962L16.4668 15.9962C17.1571 15.9962 17.7251 15.9962 18.1791 15.9558C18.6456 15.9142 19.0832 15.8242 19.4711 15.5838C20.0541 15.2226 20.4811 14.6566 20.6683 13.9968C20.7928 13.5578 20.7591 13.1123 20.671 12.6523C20.5852 12.2047 20.4291 11.6586 20.2395 10.9948L20.2299 10.9611L20.2292 10.9589L19.0585 6.86114L19.0222 6.73371C18.8212 6.0276 18.6638 5.47441 18.3279 5.04706C18.0335 4.67234 17.6467 4.38057 17.2055 4.20037C16.7023 3.99486 16.1272 3.99542 15.393 3.99613L15.2605 3.99621L6.84386 3.99621C6.30972 3.9962 5.86387 3.99619 5.49964 4.02595C5.11976 4.05699 4.7631 4.1241 4.42584 4.29594C3.90839 4.55959 3.4877 4.98029 3.22405 5.49773C3.0522 5.835 2.98509 6.19165 2.95405 6.57154C2.9243 6.93577 2.9243 7.38161 2.92432 7.91576L2.92432 12.0767C2.9243 12.6108 2.9243 13.0567 2.95406 13.4209C2.98509 13.8008 3.0522 14.1574 3.22405 14.4947C3.4877 15.0121 3.9084 15.4328 4.42584 15.6965C4.76311 15.8683 5.11976 15.9354 5.49965 15.9665C5.86388 15.9962 6.30973 15.9962 6.84389 15.9962L7.54749 15.9962C8.90779 16.7512 10.1223 18.186 11.0312 19.5302C11.4944 20.2152 11.8621 20.8521 12.1137 21.3175C12.2393 21.5498 12.3355 21.7384 12.3997 21.8676C12.4317 21.9322 12.4558 21.9819 12.4715 22.0147L12.4887 22.051L12.4925 22.0592ZM5.71217 13.4413C5.67411 13.3495 5.67411 13.233 5.67411 13L5.67411 7C5.67411 6.76703 5.67411 6.65054 5.71217 6.55866C5.76292 6.43614 5.86026 6.33881 5.98277 6.28806C6.07466 6.25 6.19114 6.25 6.42411 6.25C6.65708 6.25 6.77357 6.25 6.86545 6.28806C6.98797 6.33881 7.0853 6.43614 7.13605 6.55866C7.17411 6.65054 7.17411 6.76703 7.17411 7L7.17411 13C7.17411 13.233 7.17411 13.3495 7.13605 13.4413C7.0853 13.5639 6.98797 13.6612 6.86545 13.7119C6.77357 13.75 6.65708 13.75 6.42411 13.75C6.19114 13.75 6.07466 13.75 5.98277 13.7119C5.86026 13.6612 5.76292 13.5639 5.71217 13.4413Z"></path></symbol>
  <symbol id="v-basic_thumbsdown_line" xmlns="http://www.w3.org/2000/svg" viewBox="0 0 24 24" class="j3pvu2vsi__design-iconfont">  <path fill-rule="evenodd" clip-rule="evenodd" d="M14.4626 17.9834C14.8143 19.0385 14.3963 20.165 13.5132 20.7534C13.4879 20.7057 13.4612 20.6558 13.4332 20.6041C13.1641 20.1064 12.771 19.4253 12.2738 18.6899C11.314 17.2706 9.90172 15.551 8.17407 14.6295L8.17407 5.49621L15.2605 5.49621C16.1929 5.49621 16.4443 5.50976 16.6383 5.58901C16.8389 5.67092 17.0147 5.80354 17.1485 5.97387C17.278 6.13866 17.3601 6.37666 17.6162 7.27319L18.7876 11.3732L18.7876 11.3732L18.7876 11.3732L18.7876 11.3733L18.7879 11.3744C18.9894 12.0795 19.1261 12.5608 19.1978 12.9347C19.2686 13.304 19.2561 13.4786 19.2252 13.5874C19.1401 13.8873 18.946 14.1446 18.6811 14.3088C18.585 14.3683 18.4205 14.4283 18.0459 14.4617C17.6665 14.4955 17.1658 14.4962 16.4318 14.4962L14.3408 14.4962L13.3002 14.4962L13.6293 15.4834L14.4626 17.9834ZM6.67407 5.49628L6.67407 14.4961C6.20995 14.4957 5.88177 14.4927 5.62179 14.4715C5.33467 14.448 5.19739 14.4061 5.10683 14.36C4.87163 14.2401 4.6804 14.0489 4.56056 13.8137C4.51442 13.7231 4.47253 13.5859 4.44907 13.2987C4.4249 13.0029 4.42432 12.6186 4.42432 12.0462L4.42432 7.94621C4.42432 7.37378 4.4249 6.98957 4.44907 6.69369C4.47253 6.40656 4.51441 6.26928 4.56056 6.17872C4.6804 5.94352 4.87162 5.75229 5.10683 5.63245C5.19739 5.58631 5.33467 5.54443 5.62179 5.52097C5.88177 5.49973 6.20995 5.4967 6.67407 5.49628ZM12.4931 22.0605L12.4932 22.0607L12.4933 22.0608L12.7744 22.67L13.4113 22.4577C15.4611 21.7745 16.5689 19.5588 15.8856 17.509L15.3813 15.9962L16.4318 15.9962L16.4668 15.9962C17.1571 15.9962 17.7251 15.9962 18.1791 15.9558C18.6456 15.9142 19.0832 15.8242 19.4711 15.5838C20.0541 15.2226 20.4811 14.6566 20.6683 13.9968C20.7928 13.5578 20.7591 13.1123 20.671 12.6523C20.5852 12.2047 20.4291 11.6586 20.2395 10.9948L20.2299 10.9612L20.2299 10.9611L20.2299 10.9611L20.2292 10.959L20.2292 10.9589L19.0585 6.86114L19.0222 6.73372C18.8212 6.0276 18.6638 5.47441 18.3279 5.04706C18.0335 4.67234 17.6467 4.38057 17.2055 4.20037C16.7023 3.99486 16.1272 3.99542 15.393 3.99613L15.2605 3.99621L6.87432 3.99621L6.84386 3.99621C6.30972 3.9962 5.86388 3.99619 5.49965 4.02595C5.11976 4.05699 4.7631 4.1241 4.42584 4.29594C3.90839 4.55959 3.4877 4.98029 3.22405 5.49773C3.0522 5.835 2.98509 6.19165 2.95405 6.57154C2.9243 6.93577 2.9243 7.38161 2.92432 7.91576L2.92432 7.94621L2.92432 12.0462L2.92432 12.0767C2.9243 12.6108 2.9243 13.0567 2.95406 13.4209C2.98509 13.8008 3.0522 14.1574 3.22405 14.4947C3.4877 15.0121 3.9084 15.4328 4.42584 15.6965C4.76311 15.8683 5.11976 15.9354 5.49965 15.9665C5.86388 15.9962 6.30973 15.9962 6.84389 15.9962L6.87432 15.9962L7.54749 15.9962C8.90779 16.7512 10.1223 18.186 11.0312 19.5302C11.4944 20.2152 11.8621 20.8521 12.1137 21.3175C12.2393 21.5498 12.3355 21.7384 12.3997 21.8676C12.4317 21.9322 12.4558 21.9819 12.4715 22.0147L12.4887 22.051L12.4925 22.0592L12.4931 22.0605Z"></path></symbol>
  <symbol id="v-basic_thumbsup_fill" xmlns="http://www.w3.org/2000/svg" viewBox="0 0 24 24" class="rxlogqa1c__design-iconfont">  <path fill-rule="evenodd" clip-rule="evenodd" d="M12.8184 1.9408L12.8191 1.93949L13.1004 1.33L13.7372 1.54228C15.787 2.22554 16.8948 4.44117 16.2115 6.49099L15.7073 8.00379H16.7927C17.4831 8.00378 18.051 8.00377 18.505 8.04424C18.9715 8.08583 19.4091 8.1758 19.797 8.41616C20.38 8.77739 20.807 9.34343 20.9942 10.0032C21.1187 10.4422 21.0851 10.8877 20.9969 11.3477C20.9111 11.7953 20.7551 12.3414 20.5654 13.0052L20.5558 13.0389L20.5552 13.0411L19.3845 17.1389L19.3482 17.2663C19.1472 17.9724 18.9897 18.5256 18.6539 18.9529C18.3594 19.3277 17.9726 19.6194 17.5314 19.7996C17.0283 20.0051 16.4531 20.0046 15.7189 20.0039L15.5864 20.0038H7.16979C6.63565 20.0038 6.1898 20.0038 5.82557 19.9741C5.44569 19.943 5.08903 19.8759 4.75177 19.7041C4.23432 19.4404 3.81363 19.0197 3.54998 18.5023C3.37813 18.165 3.31102 17.8083 3.27998 17.4285C3.25023 17.0642 3.25023 16.6184 3.25024 16.0842V11.9233C3.25023 11.3892 3.25023 10.9433 3.27998 10.5791C3.31102 10.1992 3.37813 9.84258 3.54998 9.50532C3.81363 8.98787 4.23432 8.56717 4.75177 8.30352C5.08903 8.13168 5.44569 8.06457 5.82557 8.03353C6.18981 8.00377 6.63566 8.00378 7.16981 8.00379H7.87342C9.23372 7.24885 10.4482 5.814 11.3571 4.46982C11.8203 3.7848 12.188 3.14786 12.4397 2.6825C12.5653 2.4502 12.6614 2.26162 12.7256 2.1324C12.7577 2.06782 12.7817 2.01814 12.7974 1.98531L12.8146 1.949L12.8184 1.9408ZM6.0381 10.5587C6.00004 10.6505 6.00004 10.767 6.00004 11V17C6.00004 17.233 6.00004 17.3495 6.0381 17.4413C6.08885 17.5639 6.18618 17.6612 6.3087 17.7119C6.40058 17.75 6.51707 17.75 6.75004 17.75C6.98301 17.75 7.0995 17.75 7.19138 17.7119C7.3139 17.6612 7.41123 17.5639 7.46198 17.4413C7.50004 17.3495 7.50004 17.233 7.50004 17V11C7.50004 10.767 7.50004 10.6505 7.46198 10.5587C7.41123 10.4361 7.3139 10.3388 7.19138 10.2881C7.0995 10.25 6.98301 10.25 6.75004 10.25C6.51707 10.25 6.40058 10.25 6.3087 10.2881C6.18618 10.3388 6.08885 10.4361 6.0381 10.5587Z"></path></symbol>
  <symbol id="v-basic_thumbsup_line" xmlns="http://www.w3.org/2000/svg" viewBox="0 0 24 24" class="wadu6rlw2__design-iconfont">  <path fill-rule="evenodd" clip-rule="evenodd" d="M14.7885 6.01665C15.1403 4.96145 14.7222 3.83501 13.8391 3.2466C13.8138 3.29434 13.7871 3.34417 13.7591 3.39593C13.4901 3.89355 13.097 4.57468 12.5997 5.31005C11.64 6.72939 10.2276 8.449 8.5 9.37046L8.5 18.5038H15.5864C16.5188 18.5038 16.7702 18.4902 16.9642 18.411C17.1648 18.3291 17.3406 18.1965 17.4745 18.0261C17.604 17.8613 17.686 17.6233 17.9422 16.7268L19.1135 12.6268L19.1135 12.6268L19.1135 12.6268L19.1135 12.6267L19.1138 12.6256C19.3153 11.9205 19.452 11.4392 19.5237 11.0653C19.5945 10.696 19.582 10.5214 19.5511 10.4126C19.4661 10.1127 19.272 9.85542 19.007 9.69123C18.9109 9.63168 18.7464 9.5717 18.3718 9.53831C17.9924 9.50449 17.4918 9.50379 16.7578 9.50379H14.6667H13.6261L13.9552 8.51661L14.7885 6.01665ZM7 18.5037L7 9.50385C6.53587 9.50428 6.2077 9.5073 5.94772 9.52855C5.6606 9.552 5.52332 9.59389 5.43276 9.64003C5.19755 9.75987 5.00633 9.9511 4.88649 10.1863C4.84034 10.2769 4.79846 10.4141 4.775 10.7013C4.75083 10.9971 4.75024 11.3814 4.75024 11.9538V16.0538C4.75024 16.6262 4.75083 17.0104 4.775 17.3063C4.79846 17.5934 4.84034 17.7307 4.88649 17.8213C5.00633 18.0565 5.19755 18.2477 5.43275 18.3675C5.52332 18.4137 5.6606 18.4556 5.94772 18.479C6.2077 18.5003 6.53587 18.5033 7 18.5037ZM12.8191 1.93949L12.8192 1.93927L12.8192 1.93916L13.1004 1.33L13.7372 1.54227C15.787 2.22554 16.8948 4.44117 16.2115 6.49099L15.7073 8.00379H16.7578H16.7927C17.4831 8.00378 18.051 8.00377 18.505 8.04424C18.9715 8.08582 19.4091 8.1758 19.797 8.41616C20.38 8.77739 20.807 9.34342 20.9942 10.0032C21.1187 10.4422 21.0851 10.8877 20.9969 11.3477C20.9111 11.7953 20.7551 12.3414 20.5654 13.0052L20.5558 13.0388L20.5558 13.0388L20.5558 13.0389L20.5552 13.041L20.5552 13.0411L19.3845 17.1389L19.3482 17.2663C19.1472 17.9724 18.9897 18.5256 18.6539 18.9529C18.3594 19.3277 17.9726 19.6194 17.5314 19.7996C17.0283 20.0051 16.4531 20.0046 15.7189 20.0039L15.5864 20.0038H7.20024H7.16979C6.63565 20.0038 6.1898 20.0038 5.82557 19.974C5.44569 19.943 5.08903 19.8759 4.75177 19.7041C4.23432 19.4404 3.81363 19.0197 3.54998 18.5023C3.37813 18.165 3.31102 17.8083 3.27998 17.4285C3.25023 17.0642 3.25023 16.6184 3.25024 16.0842V16.0538V11.9538V11.9233C3.25023 11.3892 3.25023 10.9433 3.27998 10.5791C3.31102 10.1992 3.37813 9.84258 3.54998 9.50531C3.81363 8.98787 4.23432 8.56717 4.75177 8.30352C5.08903 8.13168 5.44569 8.06456 5.82557 8.03353C6.18981 8.00377 6.63566 8.00378 7.16982 8.00379H7.20024H7.87342C9.23372 7.24884 10.4482 5.814 11.3571 4.46982C11.8203 3.7848 12.188 3.14786 12.4397 2.6825C12.5653 2.45019 12.6614 2.26162 12.7256 2.1324C12.7577 2.06782 12.7817 2.01813 12.7974 1.98531L12.8146 1.949L12.8184 1.9408L12.8191 1.93949Z"></path></symbol>
  <symbol id="v-basic_tips_line" xmlns="http://www.w3.org/2000/svg" viewBox="0 0 24 24" class="design-iconfont">  <path d="M12 3.5C7.30558 3.5 3.5 7.30558 3.5 12C3.5 16.6944 7.30558 20.5 12 20.5C16.6944 20.5 20.5 16.6944 20.5 12C20.5 7.30558 16.6944 3.5 12 3.5ZM12 2C17.5228 2 22 6.47715 22 12C22 17.5228 17.5228 22 12 22C6.47715 22 2 17.5228 2 12C2 6.47715 6.47715 2 12 2ZM12.75 16.25C12.75 16.483 12.75 16.5995 12.7119 16.6913C12.6612 16.8139 12.5639 16.9112 12.4413 16.9619C12.3495 17 12.233 17 12 17C11.767 17 11.6505 17 11.5587 16.9619C11.4361 16.9112 11.3388 16.8139 11.2881 16.6913C11.25 16.5995 11.25 16.483 11.25 16.25V11.25C11.25 11.017 11.25 10.9005 11.2881 10.8087C11.3388 10.6861 11.4361 10.5888 11.5587 10.5381C11.6505 10.5 11.767 10.5 12 10.5C12.233 10.5 12.3495 10.5 12.4413 10.5381C12.5639 10.5888 12.6612 10.6861 12.7119 10.8087C12.75 10.9005 12.75 11.017 12.75 11.25V16.25ZM11 8.00006C11 7.44778 11.4477 7.00006 12 7.00006C12.5523 7.00006 13 7.44778 13 8.00006C13 8.55235 12.5523 9.00006 12 9.00006C11.4477 9.00006 11 8.55235 11 8.00006Z"></path></symbol>
  <symbol id="v-basic_url_line" xmlns="http://www.w3.org/2000/svg" viewBox="0 0 24 24" class="design-iconfont">  <path d="M20.1264 14.5H16.7764C16.9149 13.6945 16.9965 12.8548 16.9965 12C16.9965 11.1452 16.9149 10.3055 16.7764 9.5H20.1264C20.3693 10.2904 20.5 11.1299 20.5 12C20.5 12.8701 20.3693 13.7096 20.1264 14.5ZM15.2521 14.5H8.74743C8.59426 13.6935 8.50305 12.8518 8.50305 12C8.50305 11.1482 8.59426 10.3065 8.74743 9.5H15.2521C15.4053 10.3065 15.4965 11.1482 15.4965 12C15.4965 12.8518 15.4053 13.6935 15.2521 14.5ZM16.447 8C16.2653 7.31958 16.0501 6.67695 15.8195 6.08617C15.511 5.29612 15.1681 4.58171 14.8296 3.98234C16.8427 4.6928 18.5081 6.13997 19.5019 8H16.447ZM12.7128 3.52946C13.125 3.98035 13.8225 5.09567 14.4222 6.63169C14.5904 7.06259 14.7486 7.52086 14.8893 8H9.11039C9.25108 7.52089 9.40935 7.06263 9.57762 6.63175C10.1775 5.09564 10.8752 3.98026 11.2875 3.52944C11.5224 3.50994 11.7601 3.5 12 3.5C12.2401 3.5 12.4778 3.50995 12.7128 3.52946ZM14.8893 16C14.7486 16.4791 14.5904 16.9374 14.4222 17.3683C13.8225 18.9043 13.125 20.0196 12.7128 20.4705C12.4778 20.49 12.2401 20.5 12 20.5C11.7601 20.5 11.5224 20.4901 11.2875 20.4706C10.8752 20.0197 10.1775 18.9044 9.57762 17.3682C9.40935 16.9374 9.25108 16.4791 9.11039 16H14.8893ZM14.8296 20.0177C15.1681 19.4183 15.511 18.7039 15.8195 17.9138C16.0501 17.323 16.2653 16.6804 16.447 16H19.5019C18.5081 17.86 16.8427 19.3072 14.8296 20.0177ZM7.00305 12C7.00305 12.8548 7.08461 13.6945 7.22312 14.5H3.8736C3.63072 13.7096 3.5 12.8701 3.5 12C3.5 11.1299 3.63072 10.2904 3.8736 9.5H7.22312C7.08461 10.3055 7.00305 11.1452 7.00305 12ZM8.18038 6.08611C7.94966 6.67691 7.7344 7.31956 7.55269 8H4.4981C5.49195 6.13994 7.15736 4.69277 9.17048 3.98232C8.83189 4.58167 8.4889 5.29607 8.18038 6.08611ZM4.4981 16H7.55269C7.7344 16.6804 7.94966 17.3231 8.18038 17.9139C8.4889 18.7039 8.83189 19.4183 9.17049 20.0177C7.15736 19.3072 5.49195 17.8601 4.4981 16ZM12 22C17.5228 22 22 17.5228 22 12C22 6.47715 17.5228 2 12 2C6.47715 2 2 6.47715 2 12C2 17.5228 6.47715 22 12 22Z"></path></symbol>
  <symbol id="v-chart_structure_line" xmlns="http://www.w3.org/2000/svg" fill="none" viewBox="0 0 24 24" class="3vdquwne1__design-iconfont">  <path fill-rule="evenodd" clip-rule="evenodd" d="M16 2.75C15.3096 2.75 14.75 3.30964 14.75 4V5.75001H12C11.3096 5.75001 10.75 6.30965 10.75 7.00001V11.25H8.75V9.5C8.75 8.80964 8.19036 8.25 7.5 8.25H3C2.30964 8.25 1.75 8.80964 1.75 9.5V14.5C1.75 15.1904 2.30964 15.75 3 15.75H7.5C8.19036 15.75 8.75 15.1904 8.75 14.5V12.75H10.75V17C10.75 17.6904 11.3096 18.25 12 18.25H14.75V20C14.75 20.6904 15.3096 21.25 16 21.25H20.5C21.1904 21.25 21.75 20.6904 21.75 20V15C21.75 14.3096 21.1904 13.75 20.5 13.75H16C15.3096 13.75 14.75 14.3096 14.75 15V16.75H12.25V12V7.25001H14.75V9C14.75 9.69036 15.3096 10.25 16 10.25H20.5C21.1904 10.25 21.75 9.69036 21.75 9V4C21.75 3.30964 21.1904 2.75 20.5 2.75H16ZM16.25 8.75V4.25H20.25V8.75H16.25ZM3.25 14.25V9.75H7.25V14.25H3.25ZM16.25 15.25V19.75H20.25V15.25H16.25Z" fill="currentColor"></path></symbol>
  <symbol id="v-file_icon_pdf_light" xmlns="http://www.w3.org/2000/svg" viewBox="0 0 25 24" class="design-iconfont">  <path d="M3.18164 5.2C3.18164 4.0799 3.18164 3.51984 3.39963 3.09202C3.59137 2.71569 3.89734 2.40973 4.27366 2.21799C4.70148 2 5.26154 2 6.38164 2H15.8562C16.3453 2 16.5899 2 16.8201 2.05526C17.0242 2.10425 17.2193 2.18506 17.3982 2.29472C17.6 2.4184 17.773 2.59135 18.1189 2.93726L20.2444 5.06274C20.5903 5.40865 20.7632 5.5816 20.8869 5.78343C20.9966 5.96237 21.0774 6.15746 21.1264 6.36154C21.1816 6.59171 21.1816 6.8363 21.1816 7.32548V18.8C21.1816 19.9201 21.1816 20.4802 20.9637 20.908C20.7719 21.2843 20.4659 21.5903 20.0896 21.782C19.6618 22 19.1017 22 17.9816 22H6.38164C5.26154 22 4.70148 22 4.27366 21.782C3.89734 21.5903 3.59137 21.2843 3.39963 20.908C3.18164 20.4802 3.18164 19.9201 3.18164 18.8V5.2Z" fill="#FEF3F1"></path>  <path fill-rule="evenodd" clip-rule="evenodd" d="M20.6816 18.8V7.32548C20.6816 6.8125 20.6784 6.63751 20.6402 6.47826C20.6035 6.3252 20.5428 6.17889 20.4606 6.04468C20.375 5.90504 20.2536 5.77903 19.8908 5.4163L17.7653 3.29081C17.4026 2.92808 17.2766 2.80661 17.137 2.72104C17.0028 2.6388 16.8564 2.57819 16.7034 2.54145C16.5441 2.50321 16.3691 2.5 15.8562 2.5H6.38164C5.81334 2.5 5.41718 2.50039 5.10876 2.52559C4.80618 2.55031 4.63233 2.5964 4.50065 2.66349C4.21841 2.8073 3.98894 3.03677 3.84513 3.31901C3.77804 3.45069 3.73195 3.62454 3.70723 3.92712C3.68203 4.23554 3.68164 4.6317 3.68164 5.2V18.8C3.68164 19.3683 3.68203 19.7645 3.70723 20.0729C3.73195 20.3755 3.77804 20.5493 3.84513 20.681C3.98894 20.9632 4.21841 21.1927 4.50065 21.3365C4.63233 21.4036 4.80618 21.4497 5.10876 21.4744C5.41718 21.4996 5.81334 21.5 6.38164 21.5H17.9816C18.5499 21.5 18.9461 21.4996 19.2545 21.4744C19.5571 21.4497 19.7309 21.4036 19.8626 21.3365C20.1449 21.1927 20.3743 20.9632 20.5182 20.681C20.5852 20.5493 20.6313 20.3755 20.6561 20.0729C20.6813 19.7645 20.6816 19.3683 20.6816 18.8ZM3.39963 3.09202C3.18164 3.51984 3.18164 4.0799 3.18164 5.2V18.8C3.18164 19.9201 3.18164 20.4802 3.39963 20.908C3.59137 21.2843 3.89734 21.5903 4.27366 21.782C4.70148 22 5.26154 22 6.38164 22H17.9816C19.1017 22 19.6618 22 20.0896 21.782C20.4659 21.5903 20.7719 21.2843 20.9637 20.908C21.1816 20.4802 21.1816 19.9201 21.1816 18.8V7.32548C21.1816 6.8363 21.1816 6.59171 21.1264 6.36154C21.0774 6.15746 20.9966 5.96237 20.8869 5.78343C20.7632 5.5816 20.5903 5.40865 20.2444 5.06274L18.1189 2.93726C17.773 2.59135 17.6 2.4184 17.3982 2.29472C17.2193 2.18506 17.0242 2.10425 16.8201 2.05526C16.5899 2 16.3453 2 15.8562 2H6.38164C5.26154 2 4.70148 2 4.27366 2.21799C3.89734 2.40973 3.59137 2.71569 3.39963 3.09202Z" fill="#FDE0DC"></path>  <path fill-rule="evenodd" clip-rule="evenodd" d="M10.9063 7.4647C10.9102 7.30274 11.0384 7.16952 11.2004 7.16442L12.4175 7.12609C12.5794 7.12099 12.7153 7.24556 12.7332 7.40659C13.0551 10.3113 15.3962 12.2413 17.8732 13.5418C18.0089 13.613 18.0714 13.7739 18.0171 13.9172L17.574 15.0869C17.5197 15.2302 17.3664 15.309 17.2152 15.2841C15.7981 15.0507 12.2079 15.2986 8.14354 18.5362C8.01872 18.6357 7.83635 18.624 7.72882 18.5061L6.9013 17.5986C6.79377 17.4806 6.79633 17.3008 6.90432 17.1833C8.31198 15.6517 10.8001 11.875 10.9063 7.4647ZM12.3013 11.2657C12.252 11.195 12.141 11.2131 12.1174 11.2961C11.7824 12.4763 11.3322 13.5686 10.8383 14.5424C10.7948 14.6281 10.8853 14.7224 10.9729 14.6828C12.1849 14.1343 13.32 13.7974 14.3296 13.6108C14.4156 13.5949 14.4433 13.4837 14.3749 13.4292C13.4784 12.7152 12.8048 11.9875 12.3013 11.2657Z" fill="#F75559"></path></symbol>
  <symbol id="v-file_icon_word_light" xmlns="http://www.w3.org/2000/svg" viewBox="0 0 24 24" class="design-iconfont">  <path d="M3 5.2C3 4.0799 3 3.51984 3.21799 3.09202C3.40973 2.71569 3.71569 2.40973 4.09202 2.21799C4.51984 2 5.0799 2 6.2 2H15.6745C16.1637 2 16.4083 2 16.6385 2.05526C16.8425 2.10425 17.0376 2.18506 17.2166 2.29472C17.4184 2.4184 17.5914 2.59135 17.9373 2.93726L20.0627 5.06274C20.4086 5.40865 20.5816 5.5816 20.7053 5.78343C20.8149 5.96237 20.8957 6.15746 20.9447 6.36154C21 6.59171 21 6.8363 21 7.32548V18.8C21 19.9201 21 20.4802 20.782 20.908C20.5903 21.2843 20.2843 21.5903 19.908 21.782C19.4802 22 18.9201 22 17.8 22H6.2C5.0799 22 4.51984 22 4.09202 21.782C3.71569 21.5903 3.40973 21.2843 3.21799 20.908C3 20.4802 3 19.9201 3 18.8V5.2Z" fill="#ECF9FF"></path>  <path fill-rule="evenodd" clip-rule="evenodd" d="M20.5 18.8V7.32548C20.5 6.8125 20.4968 6.63751 20.4586 6.47826C20.4218 6.3252 20.3612 6.17889 20.279 6.04468C20.1934 5.90504 20.0719 5.77903 19.7092 5.4163L17.5837 3.29081C17.221 2.92808 17.095 2.80661 16.9553 2.72104C16.8211 2.6388 16.6748 2.57819 16.5217 2.54145C16.3625 2.50321 16.1875 2.5 15.6745 2.5H6.2C5.6317 2.5 5.23554 2.50039 4.92712 2.52559C4.62454 2.55031 4.45069 2.5964 4.31901 2.66349C4.03677 2.8073 3.8073 3.03677 3.66349 3.31901C3.5964 3.45069 3.55031 3.62454 3.52559 3.92712C3.50039 4.23554 3.5 4.6317 3.5 5.2V18.8C3.5 19.3683 3.50039 19.7645 3.52559 20.0729C3.55031 20.3755 3.5964 20.5493 3.66349 20.681C3.8073 20.9632 4.03677 21.1927 4.31901 21.3365C4.45069 21.4036 4.62454 21.4497 4.92712 21.4744C5.23554 21.4996 5.6317 21.5 6.2 21.5H17.8C18.3683 21.5 18.7645 21.4996 19.0729 21.4744C19.3755 21.4497 19.5493 21.4036 19.681 21.3365C19.9632 21.1927 20.1927 20.9632 20.3365 20.681C20.4036 20.5493 20.4497 20.3755 20.4744 20.0729C20.4996 19.7645 20.5 19.3683 20.5 18.8ZM3.21799 3.09202C3 3.51984 3 4.0799 3 5.2V18.8C3 19.9201 3 20.4802 3.21799 20.908C3.40973 21.2843 3.71569 21.5903 4.09202 21.782C4.51984 22 5.0799 22 6.2 22H17.8C18.9201 22 19.4802 22 19.908 21.782C20.2843 21.5903 20.5903 21.2843 20.782 20.908C21 20.4802 21 19.9201 21 18.8V7.32548C21 6.8363 21 6.59171 20.9447 6.36154C20.8957 6.15746 20.8149 5.96237 20.7053 5.78343C20.5816 5.5816 20.4086 5.40865 20.0627 5.06274L17.9373 2.93726C17.5914 2.59135 17.4184 2.4184 17.2166 2.29472C17.0376 2.18506 16.8425 2.10425 16.6385 2.05526C16.4083 2 16.1637 2 15.6745 2H6.2C5.0799 2 4.51984 2 4.09202 2.21799C3.71569 2.40973 3.40973 2.71569 3.21799 3.09202Z" fill="#D0EFFF"></path>  <path fill-rule="evenodd" clip-rule="evenodd" d="M6.70312 8.70002C6.70312 8.53434 6.83744 8.40002 7.00313 8.40002H8.20312C8.36881 8.40002 8.50312 8.53434 8.50312 8.70002V14.5057L11.1738 10.8036C11.2678 10.6733 11.4186 10.5961 11.5793 10.5961H12.4176C12.5784 10.5961 12.7293 10.6734 12.8233 10.8038L15.4966 14.5136V8.70002C15.4966 8.53434 15.6309 8.40002 15.7966 8.40002H16.9966C17.1623 8.40002 17.2966 8.53434 17.2966 8.70002V17.3C17.2966 17.4657 17.1623 17.6 16.9966 17.6H15.7557C15.5948 17.6 15.4437 17.5226 15.3498 17.392L11.9999 12.7341L8.65242 17.3891C8.55867 17.5195 8.40799 17.5969 8.2474 17.5972L7.00368 17.5995C6.83778 17.5998 6.70312 17.4654 6.70312 17.2995V8.70002Z" fill="#1492FF"></path></symbol>
  <symbol id="v-file_icon_ppt_light" xmlns="http://www.w3.org/2000/svg" viewBox="0 0 25 24" class="design-iconfont">  <path d="M3.36377 5.2C3.36377 4.0799 3.36377 3.51984 3.58176 3.09202C3.7735 2.71569 4.07946 2.40973 4.45579 2.21799C4.88361 2 5.44366 2 6.56377 2H16.0383C16.5275 2 16.7721 2 17.0022 2.05526C17.2063 2.10425 17.4014 2.18506 17.5803 2.29472C17.7822 2.4184 17.9551 2.59135 18.301 2.93726L20.4265 5.06274C20.7724 5.40865 20.9454 5.5816 21.069 5.78343C21.1787 5.96237 21.2595 6.15746 21.3085 6.36154C21.3638 6.59171 21.3638 6.8363 21.3638 7.32548V18.8C21.3638 19.9201 21.3638 20.4802 21.1458 20.908C20.954 21.2843 20.6481 21.5903 20.2718 21.782C19.8439 22 19.2839 22 18.1638 22H6.56377C5.44366 22 4.88361 22 4.45579 21.782C4.07946 21.5903 3.7735 21.2843 3.58176 20.908C3.36377 20.4802 3.36377 19.9201 3.36377 18.8V5.2Z" fill="#FFF8F0"></path>  <path fill-rule="evenodd" clip-rule="evenodd" d="M20.8638 18.8V7.32548C20.8638 6.8125 20.8606 6.63751 20.8223 6.47826C20.7856 6.3252 20.725 6.17889 20.6427 6.04468C20.5572 5.90504 20.4357 5.77903 20.073 5.4163L17.9475 3.29081C17.5847 2.92808 17.4587 2.80661 17.3191 2.72104C17.1849 2.6388 17.0386 2.57819 16.8855 2.54145C16.7263 2.50321 16.5513 2.5 16.0383 2.5H6.56377C5.99547 2.5 5.59931 2.50039 5.29089 2.52559C4.98831 2.55031 4.81446 2.5964 4.68278 2.66349C4.40054 2.8073 4.17107 3.03677 4.02726 3.31901C3.96017 3.45069 3.91408 3.62454 3.88936 3.92712C3.86416 4.23554 3.86377 4.6317 3.86377 5.2V18.8C3.86377 19.3683 3.86416 19.7645 3.88936 20.0729C3.91408 20.3755 3.96017 20.5493 4.02726 20.681C4.17107 20.9632 4.40054 21.1927 4.68278 21.3365C4.81446 21.4036 4.98831 21.4497 5.29089 21.4744C5.59931 21.4996 5.99547 21.5 6.56377 21.5H18.1638C18.7321 21.5 19.1282 21.4996 19.4366 21.4744C19.7392 21.4497 19.9131 21.4036 20.0448 21.3365C20.327 21.1927 20.5565 20.9632 20.7003 20.681C20.7674 20.5493 20.8135 20.3755 20.8382 20.0729C20.8634 19.7645 20.8638 19.3683 20.8638 18.8ZM3.58176 3.09202C3.36377 3.51984 3.36377 4.0799 3.36377 5.2V18.8C3.36377 19.9201 3.36377 20.4802 3.58176 20.908C3.7735 21.2843 4.07946 21.5903 4.45579 21.782C4.88361 22 5.44366 22 6.56377 22H18.1638C19.2839 22 19.8439 22 20.2718 21.782C20.6481 21.5903 20.954 21.2843 21.1458 20.908C21.3638 20.4802 21.3638 19.9201 21.3638 18.8V7.32548C21.3638 6.8363 21.3638 6.59171 21.3085 6.36154C21.2595 6.15746 21.1787 5.96237 21.069 5.78343C20.9454 5.5816 20.7724 5.40865 20.4265 5.06274L18.301 2.93726C17.9551 2.59135 17.7822 2.4184 17.5803 2.29472C17.4014 2.18506 17.2063 2.10425 17.0022 2.05526C16.7721 2 16.5275 2 16.0383 2H6.56377C5.44366 2 4.88361 2 4.45579 2.21799C4.07946 2.40973 3.7735 2.71569 3.58176 3.09202Z" fill="#FFEBDA"></path>  <path fill-rule="evenodd" clip-rule="evenodd" d="M13.4729 13.7268H10.7111V17.743C10.7111 17.9087 10.5768 18.043 10.4111 18.043H9.21113C9.04545 18.043 8.91113 17.9087 8.91113 17.743V12.2268C8.91113 12.0611 9.04545 11.9268 9.21113 11.9268H13.4729C14.3565 11.9268 15.0729 11.2104 15.0729 10.3268C15.0729 9.4431 14.3565 8.72676 13.4729 8.72676H9.21113C9.04545 8.72676 8.91113 8.59244 8.91113 8.42676V7.22676C8.91113 7.06107 9.04545 6.92676 9.21113 6.92676H13.4729C15.3507 6.92676 16.8729 8.44899 16.8729 10.3268C16.8729 12.2045 15.3507 13.7268 13.4729 13.7268Z" fill="#FF8345"></path></symbol>
  <symbol id="v-file_icon_excel_light" xmlns="http://www.w3.org/2000/svg" viewBox="0 0 25 24" class="design-iconfont">  <path d="M3.72705 5.2C3.72705 4.0799 3.72705 3.51984 3.94504 3.09202C4.13678 2.71569 4.44275 2.40973 4.81907 2.21799C5.24689 2 5.80695 2 6.92705 2H16.4016C16.8907 2 17.1353 2 17.3655 2.05526C17.5696 2.10425 17.7647 2.18506 17.9436 2.29472C18.1455 2.4184 18.3184 2.59135 18.6643 2.93726L20.7898 5.06274C21.1357 5.40865 21.3086 5.5816 21.4323 5.78343C21.542 5.96237 21.6228 6.15746 21.6718 6.36154C21.7271 6.59171 21.7271 6.8363 21.7271 7.32548V18.8C21.7271 19.9201 21.7271 20.4802 21.5091 20.908C21.3173 21.2843 21.0114 21.5903 20.635 21.782C20.2072 22 19.6472 22 18.5271 22H6.92705C5.80695 22 5.24689 22 4.81907 21.782C4.44275 21.5903 4.13678 21.2843 3.94504 20.908C3.72705 20.4802 3.72705 19.9201 3.72705 18.8V5.2Z" fill="#E6F8EF"></path>  <path fill-rule="evenodd" clip-rule="evenodd" d="M21.2271 18.8V7.32548C21.2271 6.8125 21.2238 6.63751 21.1856 6.47826C21.1489 6.3252 21.0883 6.17889 21.006 6.04468C20.9204 5.90504 20.799 5.77903 20.4362 5.4163L18.3108 3.29081C17.948 2.92808 17.822 2.80661 17.6824 2.72104C17.5482 2.6388 17.4018 2.57819 17.2488 2.54145C17.0895 2.50321 16.9145 2.5 16.4016 2.5H6.92705C6.35875 2.5 5.96259 2.50039 5.65417 2.52559C5.35159 2.55031 5.17774 2.5964 5.04606 2.66349C4.76382 2.8073 4.53435 3.03677 4.39054 3.31901C4.32345 3.45069 4.27736 3.62454 4.25264 3.92712C4.22744 4.23554 4.22705 4.6317 4.22705 5.2V18.8C4.22705 19.3683 4.22744 19.7645 4.25264 20.0729C4.27736 20.3755 4.32345 20.5493 4.39054 20.681C4.53435 20.9632 4.76382 21.1927 5.04606 21.3365C5.17774 21.4036 5.35159 21.4497 5.65417 21.4744C5.96259 21.4996 6.35875 21.5 6.92705 21.5H18.5271C19.0954 21.5 19.4915 21.4996 19.7999 21.4744C20.1025 21.4497 20.2764 21.4036 20.408 21.3365C20.6903 21.1927 20.9198 20.9632 21.0636 20.681C21.1307 20.5493 21.1767 20.3755 21.2015 20.0729C21.2267 19.7645 21.2271 19.3683 21.2271 18.8ZM3.94504 3.09202C3.72705 3.51984 3.72705 4.0799 3.72705 5.2V18.8C3.72705 19.9201 3.72705 20.4802 3.94504 20.908C4.13678 21.2843 4.44275 21.5903 4.81907 21.782C5.24689 22 5.80695 22 6.92705 22H18.5271C19.6472 22 20.2072 22 20.635 21.782C21.0114 21.5903 21.3173 21.2843 21.5091 20.908C21.7271 20.4802 21.7271 19.9201 21.7271 18.8V7.32548C21.7271 6.8363 21.7271 6.59171 21.6718 6.36154C21.6228 6.15746 21.542 5.96237 21.4323 5.78343C21.3086 5.5816 21.1357 5.40865 20.7898 5.06274L18.6643 2.93726C18.3184 2.59135 18.1455 2.4184 17.9436 2.29472C17.7647 2.18506 17.5696 2.10425 17.3655 2.05526C17.1353 2 16.8907 2 16.4016 2H6.92705C5.80695 2 5.24689 2 4.81907 2.21799C4.44275 2.40973 4.13678 2.71569 3.94504 3.09202Z" fill="#C0EBD7"></path>  <path fill-rule="evenodd" clip-rule="evenodd" d="M11.6278 12.739L8.40518 8.14113C8.26583 7.94232 8.40805 7.66895 8.65084 7.66895H10.0122C10.1753 7.66895 10.3281 7.74845 10.4216 7.88196L12.7269 11.1709L15.0321 7.88197C15.1257 7.74845 15.2785 7.66895 15.4416 7.66895H16.8029C17.0457 7.66895 17.1879 7.94232 17.0486 8.14113L13.8259 12.739L16.9477 17.1929C17.0871 17.3917 16.9448 17.665 16.702 17.665H15.3407C15.1776 17.665 15.0248 17.5855 14.9312 17.452L12.7269 14.307L10.5225 17.452C10.4289 17.5855 10.2761 17.665 10.1131 17.665H8.75172C8.50893 17.665 8.3667 17.3917 8.50605 17.1929L11.6278 12.739Z" fill="#0FB87F"></path></symbol>
  <symbol id="v-file_icon_text_light" xmlns="http://www.w3.org/2000/svg" viewBox="0 0 25 24" class="design-iconfont">  <path d="M3.09082 5.2C3.09082 4.0799 3.09082 3.51984 3.30881 3.09202C3.50055 2.71569 3.80652 2.40973 4.18284 2.21799C4.61066 2 5.17072 2 6.29082 2H15.7653C16.2545 2 16.4991 2 16.7293 2.05526C16.9334 2.10425 17.1284 2.18506 17.3074 2.29472C17.5092 2.4184 17.6822 2.59135 18.0281 2.93726L20.1536 5.06274C20.4995 5.40865 20.6724 5.5816 20.7961 5.78343C20.9058 5.96237 20.9866 6.15746 21.0356 6.36154C21.0908 6.59171 21.0908 6.8363 21.0908 7.32548V18.8C21.0908 19.9201 21.0908 20.4802 20.8728 20.908C20.6811 21.2843 20.3751 21.5903 19.9988 21.782C19.571 22 19.0109 22 17.8908 22H6.29082C5.17072 22 4.61066 22 4.18284 21.782C3.80652 21.5903 3.50055 21.2843 3.30881 20.908C3.09082 20.4802 3.09082 19.9201 3.09082 18.8V5.2Z" fill="#ECF9FF"></path>  <path fill-rule="evenodd" clip-rule="evenodd" d="M20.5908 18.8V7.32548C20.5908 6.8125 20.5876 6.63751 20.5494 6.47826C20.5126 6.3252 20.452 6.17889 20.3698 6.04468C20.2842 5.90504 20.1627 5.77903 19.8 5.4163L17.6745 3.29081C17.3118 2.92808 17.1858 2.80661 17.0461 2.72104C16.9119 2.6388 16.7656 2.57819 16.6126 2.54145C16.4533 2.50321 16.2783 2.5 15.7653 2.5H6.29082C5.72252 2.5 5.32636 2.50039 5.01794 2.52559C4.71536 2.55031 4.54151 2.5964 4.40983 2.66349C4.12759 2.8073 3.89812 3.03677 3.75431 3.31901C3.68722 3.45069 3.64113 3.62454 3.61641 3.92712C3.59121 4.23554 3.59082 4.6317 3.59082 5.2V18.8C3.59082 19.3683 3.59121 19.7645 3.61641 20.0729C3.64113 20.3755 3.68722 20.5493 3.75431 20.681C3.89812 20.9632 4.12759 21.1927 4.40983 21.3365C4.54151 21.4036 4.71536 21.4497 5.01794 21.4744C5.32636 21.4996 5.72252 21.5 6.29082 21.5H17.8908C18.4591 21.5 18.8553 21.4996 19.1637 21.4744C19.4663 21.4497 19.6401 21.4036 19.7718 21.3365C20.054 21.1927 20.2835 20.9632 20.4273 20.681C20.4944 20.5493 20.5405 20.3755 20.5652 20.0729C20.5904 19.7645 20.5908 19.3683 20.5908 18.8ZM3.30881 3.09202C3.09082 3.51984 3.09082 4.0799 3.09082 5.2V18.8C3.09082 19.9201 3.09082 20.4802 3.30881 20.908C3.50055 21.2843 3.80652 21.5903 4.18284 21.782C4.61066 22 5.17072 22 6.29082 22H17.8908C19.0109 22 19.571 22 19.9988 21.782C20.3751 21.5903 20.6811 21.2843 20.8728 20.908C21.0908 20.4802 21.0908 19.9201 21.0908 18.8V7.32548C21.0908 6.8363 21.0908 6.59171 21.0356 6.36154C20.9866 6.15746 20.9058 5.96237 20.7961 5.78343C20.6724 5.5816 20.4995 5.40865 20.1536 5.06274L18.0281 2.93726C17.6822 2.59135 17.5092 2.4184 17.3074 2.29472C17.1284 2.18506 16.9334 2.10425 16.7293 2.05526C16.4991 2 16.2545 2 15.7653 2H6.29082C5.17072 2 4.61066 2 4.18284 2.21799C3.80652 2.40973 3.50055 2.71569 3.30881 3.09202Z" fill="#D0EFFF"></path>  <path fill-rule="evenodd" clip-rule="evenodd" d="M16.5908 8.10042C16.5908 7.93473 16.4565 7.80042 16.2908 7.80042H7.89082C7.72513 7.80042 7.59082 7.93473 7.59082 8.10042V9.30042C7.59082 9.4661 7.72514 9.60041 7.89082 9.60041H11.1907L11.1907 17.5192C11.1907 17.6849 11.325 17.8192 11.4907 17.8192H12.6907C12.8564 17.8192 12.9907 17.6849 12.9907 17.5192L12.9907 9.60041H16.2908C16.4565 9.60041 16.5908 9.4661 16.5908 9.30041V8.10042Z" fill="#1492FF"></path></symbol>
</svg>
