<?xml version="1.0" encoding="utf-8"?>
<!-- Generator: Adobe Illustrator 26.3.1, SVG Export Plug-In . SVG Version: 6.00 Build 0)  -->
<svg version="1.1" id="图层_1" xmlns="http://www.w3.org/2000/svg" xmlns:xlink="http://www.w3.org/1999/xlink" x="0px" y="0px"
	 viewBox="0 0 1366 768" style="enable-background:new 0 0 1366 768;" xml:space="preserve">
<style type="text/css">
	.st0{fill:#2268D1;}
</style>
<g>
	<path class="st0" d="M281.4,556.8c-29-20.2-40.4-62-31.4-114.9c15.8-92.7,95.2-144.4,98.5-146.6l0.8-0.5l40.1-22.5
		c8.7-4.9,8.8-17.4,0.1-22.4l-71.7-41.4c7.8,12.5,11.4,26.3,10.2,40.8c-3,35.2-33.5,66-83.8,84.6c-24.2,9-48.1,12.2-70.1,12.2
		c-58.3,0-103.5-22.9-106.1-24.3l-0.8-0.5l-30.9-17.9c-8.6-5-19.3,1.2-19.3,11.1v68.9c6.3-8.3,14.4-14.9,24-19.4
		c31.9-15,73.9-4,115.2,30.2c72.4,60.1,77.5,154.6,77.7,158.6l0,1v43.2c0,9.9,10.7,16.1,19.3,11.1l69.4-40.1
		c-1.2,0.1-2.4,0.1-3.6,0.1C305.4,568.4,292.6,564.5,281.4,556.8z"/>
	<path class="st0" d="M104.6,463.7c-11.8-6.5-26.2,2-26.2,15.4v49.8c0,19.9,21.7,32.2,38.8,22l28.1-16.8
		C144.4,494.2,123,473.9,104.6,463.7z"/>
	<path class="st0" d="M144.7,408.4c-66.1-54.8-121.2-34.8-121.2,27.4v65.4c0,6.7,3.6,13,9.4,16.3L59.6,533c2.2,1.3,4.9-0.3,4.9-2.8
		v-58c0-31.3,27.8-41.4,61.1-13.8s35.3,72.3,35.3,72.3v50c0,6.7,3.6,13,9.4,16.3l39.6,22.8c2.2,1.3,4.9-0.3,4.9-2.8v-65.1
		C214.8,551.9,210.8,463.2,144.7,408.4z"/>
	<path class="st0" d="M408.4,395l-28.6-16c-34.1,20.7-41,49.5-40.6,70.5c0.2,13.4,14.8,21.7,26.4,14.9l43.1-24.9
		C426,429.7,425.8,404.7,408.4,395z"/>
	<path class="st0" d="M416.8,277.5L360.5,310c0,0-74.7,47.8-89.2,132.5s30.5,122.4,84.3,91.3l56.7-32.7c5.8-3.4,9.4-9.6,9.4-16.3
		v-30.9c0-2.5-2.7-4.1-4.9-2.8l-50.2,29c-27.1,15.7-49.8-3.3-42.5-46c7.3-42.7,44.9-66.7,44.9-66.7l43.3-25
		c5.8-3.4,9.4-9.6,9.4-16.3v-45.7C421.7,277.8,419,276.2,416.8,277.5z"/>
	<path class="st0" d="M210,250.9c11.5-6.9,11.4-23.7-0.3-30.4l-43.1-24.9c-17.2-10-38.8,2.7-38.5,22.6l0.5,32.8
		C163.7,270.1,192,261.7,210,250.9z"/>
	<path class="st0" d="M22.2,269.7l56.4,32.5c0,0,78.8,40.8,159.3,11c80.5-29.8,90.7-87.6,36.9-118.7l-56.7-32.7
		c-5.8-3.4-13-3.4-18.9,0l-26.8,15.4c-2.2,1.3-2.2,4.4,0,5.7l50.2,29c27.1,15.7,22,44.8-18.6,59.8s-80.3-5.5-80.3-5.5l-43.3-25
		c-5.8-3.4-13-3.4-18.9,0l-39.6,22.8C20,265.3,20,268.5,22.2,269.7z"/>
	<path class="st0" d="M597.7,357.2c46.1,1.7,84.2-35.3,84.2-81V160.1c0-9.4-7.6-17-17-17s-17,7.6-17,17v116.1
		c0,27.4-23.6,49.4-51.5,46.8c-24.4-2.3-42.5-23.7-42.5-48.2V160.1c0-9.4-7.6-17-17-17s-17,7.6-17,17l0,114.1
		C519.8,318.1,553.8,355.5,597.7,357.2z"/>
	<path class="st0" d="M820.8,309.4c2.7-28.7-19.9-52.8-48-52.8h-18.1c-8,0-14.5-6.7-14.1-14.9c0.4-7.7,7.2-13.4,14.9-13.4l44.3,0
		c9.4,0,17-7.6,17-17s-7.6-17-17-17h-45c-26.9,0-48.7,22.1-48.2,49.2c0.5,26.5,23.3,47.3,49.8,47.3h16.5c8.8,0,15.7,8,13.8,17.1
		c-1.3,6.6-7.5,11.2-14.2,11.2l-49.9,0c-9.4,0-17,7.6-17,17s7.6,17,17,17h48.9C796.5,353,818.4,334.4,820.8,309.4z"/>
	<path class="st0" d="M1294.4,271.1l47.5-47.5c6.7-6.7,6.7-17.4,0-24.1c-6.7-6.7-17.4-6.7-24.1,0l-90,90V160.1c0-9.4-7.6-17-17-17
		l0,0c-9.4,0-17,7.6-17,17v170.5c0,15.2,18.3,22.8,29.1,12l47.5-47.5l47.5,47.5c6.7,6.7,17.4,6.7,24.1,0h0c6.7-6.7,6.7-17.4,0-24.1
		L1294.4,271.1z"/>
	<path class="st0" d="M914.9,348.1c20.6,0,40.1-8.6,54-23.2c3.9-4.1,0.8-10.9-4.9-10.9h-48.8c-0.1,0-0.3,0-0.4,0
		c-16.3,0-30.4-9.7-36.8-23.5h111.5v-17c0-44-38.2-79.2-83.2-74.2c-34.2,3.8-61.8,31.5-65.6,65.6
		C835.7,309.9,870.9,348.1,914.9,348.1z M915.4,232.9c16.1,0.2,29.9,9.8,36.3,23.5l-73.5,0C884.8,242.5,899.3,232.7,915.4,232.9z"/>
	<path class="st0" d="M1139.7,314H1091c-0.1,0-0.3,0-0.4,0c-16.3,0-30.4-9.7-36.8-23.5h111.5v-17c0-44-38.2-79.2-83.2-74.2
		c-34.2,3.8-61.8,31.5-65.6,65.6c-5,45,30.2,83.2,74.2,83.2c20.6,0,40.1-8.6,54-23.2C1148.5,320.8,1145.4,314,1139.7,314z
		 M1091.1,232.9c16.1,0.2,29.9,9.8,36.3,23.5l-73.5,0C1060.4,242.5,1074.9,232.7,1091.1,232.9z"/>
	<path class="st0" d="M678.8,476.6v-17.5c-8.9-1.9-17.8-3.7-26.9-5.8v16.8c0.5,0.2,0.7,0.5,0.9,0.5c7.9,2.1,15.9,4,23.6,5.8
		C677.4,476.6,677.9,476.6,678.8,476.6z"/>
	<path class="st0" d="M707.3,503.7v-71h-56.1v18h32v25.5l-4.4,0.7c-0.9,0.2-1.6,0.9-2.8,1.2l-14.9,4.2l-9.3,2.3v18.2
		c10.5-2.8,20.8-5.6,31.5-8.6v9.6H707.3z"/>
	<path class="st0" d="M674.1,594.8h28.7v-19.6h-28.7v-7.7h28.7v-19.4h-28.7v-8.9h31.8v-19.6H673c-1.2-4-2.6-7.9-3.7-11.9h-25.5
		c0.7,4.2,1.6,7.9,2.6,11.9h-21c1.4-4.2,2.6-8.4,3.7-12.4h-25.7c-2.8,9.8-6.5,15.6-16.8,23.4v24.8c1.6-0.5,3.3-1.2,5.1-1.9v70.3
		h26.2v-84.3h29.4v8.6h-23.8v19.6h23.8v7.5h-23.8V595h23.8v8.6h-24.1v19.6h84.3v-19.6h-33.4V594.8z"/>
	<path class="st0" d="M589.1,484.5v17.7c9.6-2.8,19.2-5.4,28.5-8.2v-35l-28-6.3v17c8.6,2.1,17.3,4,25.9,6.1c0,0.2-0.2,0.5-0.2,0.7
		C606.9,480.1,598,481.7,589.1,484.5z"/>
	<path class="st0" d="M561.1,439.7h-38.8c-0.9,0-1.9,0.2-2.6,0.2v171.4h2.3c11.7,0,23.4-0.2,35,0c9.1,0,15.6-4.2,20.8-11.2
		c2.8-3.7,3.5-7.9,3.5-12.6V459.8C581.2,448.8,572.1,439.7,561.1,439.7z M556.4,582.4c0,4.2-2.3,6.8-6.8,7h-4.9v-57h11.4
		c0.2,0.9,0.2,1.6,0.2,2.3C556.4,550.6,556.7,566.5,556.4,582.4z M556.4,509.1c0,0.2,0,0.5-0.2,0.9h-11.4v-48.1
		c6.1-1.4,11.7,2.3,11.7,8.4C556.7,483.4,556.4,496.2,556.4,509.1z"/>
	<polygon class="st0" points="644.7,499.7 644.7,432.7 588.9,432.7 588.9,450.7 622.5,450.7 622.5,499.7 	"/>
	<path class="st0" d="M740,553c-2.1,20.6-5.4,40.6-9.1,61h29.7c3.7-20.1,7-40.4,8.4-60.7c1.6-20.6,2.6-41.3,2.6-61.9h-28.3
		C743,512.1,741.8,532.6,740,553z"/>
	<path class="st0" d="M908.8,461.2c8.9,0,10.7-1.6,10.7-1.6v-21c-3.5,1.2-5.1,1.4-17.7,1.4h-12.4c0.9-4.7,1.2-7.7,1.2-7.7h-29.2
		c0,0-0.2,3.5-0.9,7.7h-59.8l-1.2-7.7h-29.2c0,0,0.2,3,1.2,7.7h-36v21.3h40.9c1.2,4.4,2.3,7.5,2.3,7.5h28.5l-1.9-7.5h50.4l-2.1,7.5
		h28.5c0,0,1.2-3,2.3-7.5H908.8z"/>
	<path class="st0" d="M810.5,595.7c-0.2-0.9-0.2-2.1-0.2-3.3V483.6h-28.7c-0.2,0.9-0.2,1.6-0.2,2.6v114.7
		c0.5,12.8,10.3,22.4,23.1,22.4h74.5v-21.7h-60.7C813.8,601.5,811.4,599.7,810.5,595.7z"/>
	<path class="st0" d="M917.7,582.6c-1.2-7.7-1.6-15.6-2.1-23.4c-0.7-12.1-1.2-24.5-1.6-36.7l-1.4-31.3h-28l0.2,1.9l1.4,44.1
		c0.5,10,0.9,20.1,1.6,29.9c0.5,5.8,0.9,11.4,1.6,17.3c0.7,4.9,1.2,9.8,2.1,14.9l3.5,20.8h28.5l-1.4-8.4
		C920.7,602,918.9,592.4,917.7,582.6z"/>
	<path class="st0" d="M854,481.7h-28c2.8,35.5,6.1,70.5,9.6,105.6h27.8C860.3,552,857,516.8,854,481.7z"/>
	<path class="st0" d="M1053.4,439.7v88h5.4c17.3,0,34.8,0,52.1-0.2c1.6,0,3.3,0,4.9-0.5c10.5-2.6,17.5-11.2,17.5-22.4v-62.8
		c0-0.7-0.2-1.4-0.2-2.1H1053.4z M1106.4,496.7c0,6.3-3,9.3-9.1,9.3H1081c-0.2,0-0.5,0-0.9-0.2v-45.1h26.4V496.7z"/>
	<path class="st0" d="M959.7,623.5h141.1c3.5,0,6.5-0.9,9.3-2.6c6.8-4.2,10.5-10.3,10.5-18.5v-65.4H959.7V623.5z M987.3,558.3h105.3
		v11.2H987.3V558.3z M987.1,590.3c2.3-0.7,97.9-1.2,105.6-0.5c0,2.1,0.2,4.2,0,6.1c-0.2,3.7-2.6,6.3-6.3,6.5h-99.3V590.3z"/>
	<path class="st0" d="M1046.9,535.9c-0.2-8.2,0.5-16.1-0.2-23.8c-0.7-0.2-0.9-0.5-1.4-0.5c-8.6-2.3-16.8-5.6-23.8-11
		c-1.4-0.9-2.3-2.1-3.5-3.3c0,0,0.2-0.2,0.2-0.5h28.7v-21.7h-35.5v-13.3h33.2v-21.3h-51.8c0.9-2.8,1.6-5.1,2.3-7.7h-28.7
		c-3.3,9.1-9.6,14.7-18.7,17v23.1c10.7-1.4,20.1-4.4,28.3-11h8.2v13.3h-37.1v21.7h30.4c-4.2,4.7-8.6,7.9-14,10
		c-5.4,1.9-10.7,3.5-16.3,5.1v24.5c19.6-2.3,37.1-8.9,51.1-23.4C1011.1,527.7,1027.7,534.7,1046.9,535.9z"/>
	<path class="st0" d="M1312.9,439.5c-26.4,0.2-53,0.2-79.6,0.2h-25.7v20.8h4c28,0,55.8,0.2,83.8,0c7.5,0,13.1,4.2,12.6,12.6v118.6
		c-0.5,3-2.8,5.8-6.1,6.3c-1.6,0.2-3.3,0.2-5.1,0.2h-11.7V624c8.4,0,16.6,0.5,24.8,0c7.7-0.7,14.2-4.2,19.2-10.3
		c5.4-6.3,7-13.8,7-22c-0.2-43.2-0.2-86.4-0.2-129.6C1335.8,450.7,1327.3,439.2,1312.9,439.5z"/>
	<path class="st0" d="M1290.4,573c-0.2-24.1,0-48.3,0-72.4c0-4.7-3.5-7.9-8.4-7.9h-78.5v96c0.9,0.2,1.2,0.2,1.6,0.2
		c23.1,0,46.5,0.2,69.6,0C1283.9,588.7,1290.4,580.5,1290.4,573z M1266.9,556.2c0,1.9,0,3.7-0.5,5.4c-0.9,3.5-4,6.1-8.4,6.1
		c-10.3,0.2-20.6,0-31.1,0v-55.4h39.9V556.2z"/>
	<rect x="1156.6" y="477.8" class="st0" width="27.1" height="146.2"/>
	<path class="st0" d="M1156.9,432.2c0.7,12.8,4,24.5,8.4,36.2h27.6c-2.8-12.1-5.4-24.1-7.9-36.2H1156.9z"/>
</g>
</svg>
