<?xml version="1.0" encoding="utf-8"?>
<!-- Generator: Adobe Illustrator 26.3.1, SVG Export Plug-In . SVG Version: 6.00 Build 0)  -->
<svg xmlns="http://www.w3.org/2000/svg" xmlns:xlink="http://www.w3.org/1999/xlink" version="1.1" id="图层_1" x="0px" y="0px" viewBox="0 0 435 748" style="enable-background:new 0 0 435 748;" xml:space="preserve">
<style type="text/css">
	.st0{fill:#2268D1;}
</style>
	<g>
	<path class="st0" d="M281.4,556.8c-29-20.2-40.4-62-31.4-114.9c15.8-92.7,95.2-144.4,98.5-146.6l0.8-0.5l40.1-22.5   c8.7-4.9,8.8-17.4,0.1-22.4l-71.7-41.4c7.8,12.5,11.4,26.3,10.2,40.8c-3,35.2-33.5,66-83.8,84.6c-24.2,9-48.1,12.2-70.1,12.2   c-58.3,0-103.5-22.9-106.1-24.3l-0.8-0.5l-30.9-17.9c-8.6-5-19.3,1.2-19.3,11.1v68.9c6.3-8.3,14.4-14.9,24-19.4   c31.9-15,73.9-4,115.2,30.2c72.4,60.1,77.5,154.6,77.7,158.6l0,1v43.2c0,9.9,10.7,16.1,19.3,11.1l69.4-40.1   c-1.2,0.1-2.4,0.1-3.6,0.1C305.4,568.4,292.6,564.5,281.4,556.8z"/>
		<path class="st0" d="M104.6,463.7c-11.8-6.5-26.2,2-26.2,15.4v49.8c0,19.9,21.7,32.2,38.8,22l28.1-16.8   C144.4,494.2,123,473.9,104.6,463.7z"/>
		<path class="st0" d="M144.7,408.4c-66.1-54.8-121.2-34.8-121.2,27.4v65.4c0,6.7,3.6,13,9.4,16.3L59.6,533c2.2,1.3,4.9-0.3,4.9-2.8   v-58c0-31.3,27.8-41.4,61.1-13.8s35.3,72.3,35.3,72.3v50c0,6.7,3.6,13,9.4,16.3l39.6,22.8c2.2,1.3,4.9-0.3,4.9-2.8v-65.1   C214.8,551.9,210.8,463.2,144.7,408.4z"/>
		<path class="st0" d="M408.4,395l-28.6-16c-34.1,20.7-41,49.5-40.6,70.5c0.2,13.4,14.8,21.7,26.4,14.9l43.1-24.9   C426,429.7,425.8,404.7,408.4,395z"/>
		<path class="st0" d="M416.8,277.5L360.5,310c0,0-74.7,47.8-89.2,132.5s30.5,122.4,84.3,91.3l56.7-32.7c5.8-3.4,9.4-9.6,9.4-16.3   v-30.9c0-2.5-2.7-4.1-4.9-2.8l-50.2,29c-27.1,15.7-49.8-3.3-42.5-46c7.3-42.7,44.9-66.7,44.9-66.7l43.3-25   c5.8-3.4,9.4-9.6,9.4-16.3v-45.7C421.7,277.8,419,276.2,416.8,277.5z"/>
		<path class="st0" d="M210,250.9c11.5-6.9,11.4-23.7-0.3-30.4l-43.1-24.9c-17.2-10-38.8,2.7-38.5,22.6l0.5,32.8   C163.7,270.1,192,261.7,210,250.9z"/>
		<path class="st0" d="M22.2,269.7l56.4,32.5c0,0,78.8,40.8,159.3,11c80.5-29.8,90.7-87.6,36.9-118.7l-56.7-32.7   c-5.8-3.4-13-3.4-18.9,0l-26.8,15.4c-2.2,1.3-2.2,4.4,0,5.7l50.2,29c27.1,15.7,22,44.8-18.6,59.8s-80.3-5.5-80.3-5.5l-43.3-25   c-5.8-3.4-13-3.4-18.9,0l-39.6,22.8C20,265.3,20,268.5,22.2,269.7z"/>
</g>
</svg>
