<svg width="655" height="50" viewBox="0 0 655 50" fill="none" xmlns="http://www.w3.org/2000/svg">
<g clip-path="url(#clip0_326_368)">
<path d="M258.35 31.5955C258.35 31.4058 258.116 31.3109 257.989 31.4532C255.66 34.0262 252.116 36.1941 247.62 36.1941C240.945 36.1941 236.635 31.5846 236.635 24.4459C236.635 17.3072 240.744 12.6576 247.357 12.6576C251.204 12.6576 255.211 14.497 257.609 16.986C257.741 17.1211 257.967 17.0298 257.967 16.8401V13.1612C255.262 10.7269 251.343 9.25977 247.354 9.25977C243.365 9.25977 239.682 10.7123 237.182 13.4605C234.708 16.1795 233.397 19.9787 233.397 24.4459C233.397 33.5298 239.113 39.632 247.616 39.632C251.675 39.632 255.638 38.1284 258.346 35.6247V31.5955H258.35Z" fill="black"/>
<path d="M76.9053 10.0186V13.1718H86.8761V38.8799H90.3286V13.1718H100.303V10.0186H76.9053Z" fill="black"/>
<path d="M334.789 19.8839C333.004 17.9496 330.019 17.2452 327.873 17.2452C325.004 17.2452 322.431 18.3146 320.625 20.2562C318.767 22.2525 317.785 25.0263 317.785 28.2671C317.785 35.9679 322.895 39.4131 327.957 39.4131C330.913 39.4131 333.354 38.3547 334.792 36.4861V38.9241H338.234V10.0664H334.792V19.8839H334.789ZM334.698 28.3511C334.698 32.2927 332.409 36.2817 328.037 36.2817C324.752 36.2817 321.219 33.8511 321.219 28.5153C321.219 24.5956 323.289 20.3766 327.833 20.3766C332.898 20.3766 334.698 24.6722 334.698 28.3511Z" fill="black"/>
<path d="M266.411 10.0664H262.918V38.9241H266.411V10.0664Z" fill="black"/>
<path d="M162.338 33.5802C162.338 33.3977 162.122 33.3028 161.987 33.4269C159.739 35.4561 156.473 36.248 155.046 36.248C150.414 36.248 147.421 33.1422 147.421 28.3356C147.421 23.5291 150.414 20.4232 155.046 20.4232C156.476 20.4232 159.64 20.8247 161.991 22.8502C162.126 22.967 162.338 22.8721 162.338 22.6933V19.5145C160.921 18.624 157.943 17.248 154.863 17.248C148.465 17.248 144.166 21.7042 144.166 28.3393C144.166 34.9743 148.465 39.4305 154.863 39.4305C157.509 39.4305 160.1 38.7152 162.338 37.1568V33.5875V33.5802Z" fill="black"/>
<path d="M117.222 32.8981C117.222 32.6938 116.967 32.6135 116.846 32.7741C115.313 34.796 111.642 36.4273 109.386 36.4273C107.131 36.4273 105.204 35.7157 104.094 34.5697C102.751 33.1792 102.021 31.2704 102.04 29.3069H118.185V29.0587C118.185 24.504 117.408 21.9237 115.419 19.8507C113.755 18.1208 111.467 17.2412 108.616 17.2412C102.576 17.2412 98.6709 21.566 98.6709 28.2631C98.8899 35.2339 102.85 39.3908 109.262 39.3908C112.317 39.3908 114.904 38.3617 117.222 36.3398V32.8945V32.8981ZM114.923 26.3434H102.032V26.2777C102.178 24.4383 102.988 22.858 104.386 21.7011C105.499 20.7777 106.97 20.2704 108.525 20.2704C112.288 20.2704 114.74 22.5733 114.923 26.2777V26.3398V26.3434Z" fill="black"/>
<path d="M310.432 28.5144C310.432 34.2626 307.119 36.3027 304.279 36.3027C301.44 36.3027 298.604 34.4013 298.604 30.8721V17.7334H295.319V30.8137C295.319 35.8794 298.936 39.4159 304.111 39.4159C306.98 39.4159 309.217 38.4487 310.637 36.613V38.9195H313.768V17.737H310.432V28.5144Z" fill="black"/>
<path d="M131.754 17.2451C129.112 17.2451 126.871 18.1283 125.371 19.7488V17.7269H122.108V38.9276H125.444V26.8473C125.444 24.851 126.054 23.1575 127.163 22.0699C128.357 20.8984 129.835 20.3583 131.667 20.4167C134.28 20.4969 136.915 22.2232 136.915 25.9094V38.9276H140.251V25.7561C140.251 23.1429 139.422 20.9677 137.853 19.4604C136.346 18.0152 134.236 17.2488 131.754 17.2488V17.2451Z" fill="black"/>
<path d="M184.117 32.8981C184.117 32.6938 183.861 32.6135 183.741 32.7741C182.208 34.796 178.536 36.4273 176.281 36.4273C174.025 36.4273 172.098 35.7157 170.989 34.5697C169.646 33.1792 168.916 31.2704 168.934 29.3069H185.08V29.0587C185.08 24.504 184.303 21.9237 182.314 19.8507C180.649 18.1208 178.361 17.2412 175.511 17.2412C169.471 17.2412 165.565 21.566 165.565 28.2631C165.784 35.2339 169.744 39.3908 176.157 39.3908C179.211 39.3908 181.799 38.3617 184.117 36.3398V32.8945V32.8981ZM181.817 26.3434H168.927V26.2777C169.073 24.4383 169.883 22.858 171.281 21.7011C172.394 20.7777 173.865 20.2704 175.419 20.2704C179.182 20.2704 181.635 22.5733 181.817 26.2777V26.3398V26.3434Z" fill="black"/>
<path d="M198.593 17.2451C195.951 17.2451 193.71 18.1283 192.21 19.7488V17.7269H188.947V38.9276H192.283V26.8473C192.283 24.851 192.893 23.1575 194.002 22.0699C195.195 20.8984 196.674 20.3583 198.506 20.4167C201.119 20.4969 203.754 22.2232 203.754 25.9094V38.9276H207.09V25.7561C207.09 23.1429 206.261 20.9677 204.692 19.4604C203.184 18.0152 201.075 17.2488 198.593 17.2488V17.2451Z" fill="black"/>
<path d="M217.992 39.2044C220.014 39.0949 222.335 38.219 222.335 38.219V35.0255C222.335 34.8796 222.193 34.7774 222.058 34.8285C221.266 35.1058 219.434 35.6752 218.485 35.8102C218.138 35.865 217.828 35.9161 217.601 35.719C217.452 35.5912 217.375 35.4197 217.375 35.0438V20.8029H223.477V17.719H217.375V12.0693H213.912V17.719H210.434V20.8029H213.912V35.3796C213.912 36.6314 214.295 37.6022 215.047 38.2628C215.751 38.8796 216.777 39.2044 217.999 39.2044H217.992Z" fill="black"/>
<path d="M281.261 17.2842C275.112 17.2842 270.98 21.7294 270.98 28.3499C270.98 34.9703 275.112 39.4156 281.261 39.4156C287.411 39.4156 291.542 34.9703 291.542 28.3499C291.542 21.7294 287.411 17.2842 281.261 17.2842ZM274.17 28.328V28.3207C274.181 23.6309 277.028 20.4813 281.261 20.4813C285.495 20.4813 288.353 23.6418 288.353 28.3499C288.353 33.0543 285.502 36.2185 281.261 36.2185C277.021 36.2185 274.174 33.0287 274.17 28.328Z" fill="black"/>
<path d="M64.7182 22.288C61.8204 19.3318 57.7803 17.4668 53.2876 17.4668C49.4044 17.4668 46.0613 18.8062 43.1452 21.1821C41.8715 22.2186 40.5357 23.4595 38.8606 25.0872C38.0284 25.8975 13.8496 49.3573 13.8496 49.3573C15.116 49.5398 16.8606 49.5909 18.4153 49.6018C19.8715 49.6091 47.6489 49.6091 48.8131 49.6091C51.1525 49.6091 52.6744 49.6091 54.3131 49.4851C58.0649 49.2113 61.6087 47.8354 64.4737 45.0215C70.835 38.7734 70.9299 28.631 64.7219 22.2843M60.0722 40.5288C58.8387 41.7478 56.6379 43.1347 53.0284 43.2588C51.3606 43.3172 49.4117 43.3208 48.5175 43.3208H29.116C36.1744 36.4631 42.3314 30.485 43.0321 29.8062C43.6708 29.1821 45.1124 27.8062 46.3533 26.6894C49.0795 24.2369 51.5321 23.7405 53.2657 23.7588C55.9846 23.7843 58.4554 24.8938 60.2255 26.6858C64.0065 30.5507 63.9153 36.7259 60.0722 40.5288Z" fill="#00A1FF"/>
<path d="M25.7107 20.7809C22.8677 18.6532 19.6888 17.4671 16.0794 17.4707C11.5867 17.4707 7.5465 19.332 4.64869 22.2919C-1.56298 28.6386 -1.46809 38.7809 4.89687 45.0291C7.45161 47.5364 10.5465 48.9014 13.8494 49.3649L20.0757 43.3247C19.0684 43.3211 17.6268 43.3065 16.3421 43.2627C12.7326 43.1386 10.5319 41.7554 9.29833 40.5328C5.45526 36.7298 5.36767 30.5547 9.14505 26.6897C10.9115 24.8977 13.3859 23.7882 16.1012 23.7627C17.8056 23.7554 20.1158 24.2481 22.729 26.416C23.9772 27.4488 26.7436 29.8831 27.9589 30.978C28.021 31.0328 28.0976 31.0401 28.1669 30.978L32.4553 26.7955C32.5283 26.7225 32.5246 26.6276 32.4516 26.562C30.3896 24.7006 27.4699 22.0911 25.7107 20.7809Z" fill="#00C4D6"/>
<path d="M54.9739 13.8394C52.0141 5.4854 44.0506 -0.5 34.6856 -0.5C23.9411 -0.5 15.036 7.40146 13.4229 17.6934C14.2878 17.5474 15.1747 17.4708 16.0834 17.4708C17.3462 17.4708 18.5542 17.6168 19.7148 17.8942C19.7367 17.9015 19.7623 17.9015 19.7842 17.9088C21.2404 10.9599 27.3827 5.79927 34.6893 5.79927C40.7732 5.79927 46.1126 9.46715 48.5177 14.6679C48.5542 14.7518 48.6199 14.7774 48.6856 14.7591C50.4958 14.2628 52.6674 13.9708 54.7623 14.1277C54.9666 14.1423 55.0433 14.0292 54.9813 13.8431" fill="#006EFF"/>
<path d="M362.945 26.9145H372.749L367.928 13.4244H367.847L362.945 26.9145ZM365.822 9.94042H370.075L381.378 38.8652H377.124L373.964 30.1554H361.73L358.489 38.8652H354.56L365.822 9.94042ZM388.485 35.6244H394.886C395.318 35.6244 395.858 35.5974 396.506 35.5433C397.154 35.4623 397.843 35.3003 398.572 35.0572C399.301 34.7871 400.017 34.409 400.719 33.9229C401.449 33.4368 402.097 32.7751 402.664 31.9379C403.231 31.1006 403.69 30.0609 404.041 28.8185C404.419 27.5492 404.608 26.0233 404.608 24.2408C404.608 22.5123 404.433 20.9729 404.082 19.6225C403.758 18.2452 403.204 17.0838 402.421 16.1386C401.665 15.1663 400.679 14.4371 399.464 13.951C398.248 13.4379 396.749 13.1813 394.967 13.1813H388.485V35.6244ZM384.637 9.94042H394.562C399.018 9.94042 402.448 11.0747 404.851 13.3433C407.255 15.6119 408.457 19.0689 408.457 23.7141C408.457 26.1448 408.187 28.3054 407.647 30.1959C407.107 32.0594 406.269 33.6393 405.135 34.9357C404.001 36.205 402.556 37.1773 400.8 37.8525C399.045 38.5276 396.965 38.8652 394.562 38.8652H384.637V9.94042ZM417.414 23.7952H424.949C427.137 23.8222 428.73 23.3765 429.729 22.4583C430.756 21.5401 431.269 20.2167 431.269 18.4882C431.269 16.7598 430.756 15.4499 429.729 14.5587C428.73 13.6404 427.137 13.1813 424.949 13.1813H417.414V23.7952ZM413.565 9.94042H426.245C429.162 9.94042 431.363 10.6966 432.849 12.209C434.361 13.6944 435.117 15.7875 435.117 18.4882C435.117 21.189 434.361 23.2955 432.849 24.8079C431.363 26.3203 429.162 27.063 426.245 27.036H417.414V38.8652H413.565V9.94042ZM472.256 18.6503C471.824 16.5977 470.865 15.0583 469.38 14.032C467.921 13.0057 466.179 12.4926 464.154 12.4926C462.425 12.4926 460.94 12.8167 459.698 13.4649C458.482 14.113 457.47 14.9908 456.659 16.0981C455.876 17.1784 455.295 18.4207 454.917 19.8251C454.539 21.2295 454.35 22.6879 454.35 24.2003C454.35 25.8477 454.539 27.4141 454.917 28.8995C455.295 30.3579 455.876 31.6408 456.659 32.7481C457.47 33.8284 458.496 34.6926 459.738 35.3408C460.98 35.989 462.466 36.313 464.194 36.313C465.464 36.313 466.584 36.1105 467.557 35.7054C468.556 35.2733 469.407 34.6926 470.109 33.9634C470.838 33.2072 471.405 32.316 471.81 31.2897C472.215 30.2634 472.459 29.1561 472.54 27.9678H476.388C476.01 31.6138 474.754 34.4495 472.621 36.4751C470.487 38.5006 467.57 39.5134 463.87 39.5134C461.629 39.5134 459.671 39.1353 457.996 38.3791C456.322 37.5959 454.931 36.5291 453.824 35.1787C452.716 33.8284 451.879 32.2349 451.312 30.3984C450.772 28.5619 450.502 26.5904 450.502 24.4838C450.502 22.3773 450.799 20.4057 451.393 18.5692C451.987 16.7057 452.851 15.0853 453.986 13.7079C455.147 12.3306 456.578 11.2503 458.28 10.4671C460.008 9.65684 461.98 9.25173 464.194 9.25173C465.707 9.25173 467.138 9.45429 468.488 9.85939C469.839 10.2645 471.041 10.8587 472.094 11.6419C473.147 12.4251 474.025 13.4109 474.727 14.5992C475.429 15.7605 475.888 17.1109 476.105 18.6503H472.256ZM480.993 9.94042H484.437V20.9999H484.518C484.788 20.3517 485.166 19.8116 485.652 19.3795C486.138 18.9203 486.678 18.5557 487.273 18.2857C487.894 17.9886 488.528 17.7725 489.177 17.6375C489.852 17.5025 490.5 17.4349 491.121 17.4349C492.498 17.4349 493.646 17.624 494.565 18.0021C495.483 18.3802 496.226 18.9068 496.793 19.582C497.36 20.2572 497.751 21.0674 497.967 22.0127C498.211 22.9309 498.332 23.9572 498.332 25.0915V38.8652H494.889V24.6864C494.889 23.3901 494.511 22.3638 493.754 21.6076C492.998 20.8514 491.958 20.4733 490.635 20.4733C489.582 20.4733 488.663 20.6353 487.88 20.9594C487.124 21.2835 486.489 21.7426 485.976 22.3368C485.463 22.9309 485.071 23.6331 484.801 24.4433C484.558 25.2265 484.437 26.0908 484.437 27.036V38.8652H480.993V9.94042ZM522.463 38.7842C521.869 39.1353 521.045 39.3109 519.992 39.3109C519.101 39.3109 518.385 39.0678 517.845 38.5817C517.332 38.0685 517.075 37.2448 517.075 36.1105C516.13 37.2448 515.022 38.0685 513.753 38.5817C512.511 39.0678 511.16 39.3109 509.702 39.3109C508.757 39.3109 507.852 39.2028 506.988 38.9868C506.151 38.7707 505.421 38.4331 504.8 37.974C504.179 37.5149 503.679 36.9207 503.301 36.1915C502.95 35.4353 502.775 34.5306 502.775 33.4773C502.775 32.289 502.977 31.3167 503.382 30.5605C503.787 29.8043 504.314 29.1966 504.962 28.7375C505.637 28.2514 506.394 27.8868 507.231 27.6437C508.095 27.4006 508.973 27.1981 509.864 27.036C510.809 26.847 511.701 26.7119 512.538 26.6309C513.402 26.5229 514.158 26.3879 514.806 26.2258C515.455 26.0368 515.968 25.7802 516.346 25.4561C516.724 25.105 516.913 24.6054 516.913 23.9572C516.913 23.201 516.764 22.5933 516.467 22.1342C516.197 21.6751 515.833 21.324 515.374 21.0809C514.941 20.8379 514.442 20.6758 513.875 20.5948C513.335 20.5138 512.794 20.4733 512.254 20.4733C510.796 20.4733 509.581 20.7568 508.608 21.324C507.636 21.8641 507.109 22.9039 507.028 24.4433H503.585C503.639 23.147 503.909 22.0532 504.395 21.1619C504.881 20.2707 505.529 19.555 506.34 19.0149C507.15 18.4477 508.068 18.0426 509.094 17.7995C510.148 17.5565 511.268 17.4349 512.457 17.4349C513.402 17.4349 514.334 17.5025 515.252 17.6375C516.197 17.7725 517.048 18.0561 517.804 18.4882C518.56 18.8933 519.168 19.474 519.627 20.2302C520.086 20.9864 520.316 21.9722 520.316 23.1875V33.9634C520.316 34.7736 520.356 35.3678 520.437 35.7459C520.545 36.124 520.87 36.313 521.41 36.313C521.707 36.313 522.058 36.2455 522.463 36.1105V38.7842ZM516.872 28.0488C516.44 28.3729 515.873 28.616 515.171 28.778C514.469 28.913 513.726 29.0346 512.943 29.1426C512.187 29.2236 511.417 29.3317 510.634 29.4667C509.851 29.5747 509.148 29.7638 508.527 30.0338C507.906 30.3039 507.393 30.6955 506.988 31.2087C506.61 31.6948 506.421 32.37 506.421 33.2342C506.421 33.8014 506.529 34.2875 506.745 34.6926C506.988 35.0707 507.285 35.3813 507.636 35.6244C508.014 35.8674 508.446 36.043 508.932 36.151C509.418 36.259 509.932 36.313 510.472 36.313C511.606 36.313 512.578 36.1645 513.389 35.8674C514.199 35.5433 514.86 35.1517 515.374 34.6926C515.887 34.2065 516.265 33.6933 516.508 33.1532C516.751 32.586 516.872 32.0594 516.872 31.5733V28.0488ZM530.853 17.9211H535.026V20.9594H530.853V33.9634C530.853 34.3685 530.88 34.6926 530.934 34.9357C531.015 35.1787 531.15 35.3678 531.339 35.5028C531.528 35.6379 531.785 35.7324 532.109 35.7864C532.46 35.8134 532.906 35.8269 533.446 35.8269H535.026V38.8652H532.393C531.501 38.8652 530.732 38.8112 530.083 38.7032C529.462 38.5682 528.949 38.3386 528.544 38.0145C528.166 37.6904 527.882 37.2313 527.693 36.6371C527.504 36.043 527.41 35.2598 527.41 34.2875V20.9594H523.845V17.9211H527.41V11.6419H530.853V17.9211ZM571.84 18.6503C571.408 16.5977 570.449 15.0583 568.964 14.032C567.505 13.0057 565.764 12.4926 563.738 12.4926C562.009 12.4926 560.524 12.8167 559.282 13.4649C558.066 14.113 557.054 14.9908 556.243 16.0981C555.46 17.1784 554.88 18.4207 554.501 19.8251C554.123 21.2295 553.934 22.6879 553.934 24.2003C553.934 25.8477 554.123 27.4141 554.501 28.8995C554.88 30.3579 555.46 31.6408 556.243 32.7481C557.054 33.8284 558.08 34.6926 559.322 35.3408C560.565 35.989 562.05 36.313 563.778 36.313C565.048 36.313 566.169 36.1105 567.141 35.7054C568.14 35.2733 568.991 34.6926 569.693 33.9634C570.422 33.2072 570.989 32.316 571.395 31.2897C571.8 30.2634 572.043 29.1561 572.124 27.9678H575.972C575.594 31.6138 574.338 34.4495 572.205 36.4751C570.071 38.5006 567.154 39.5134 563.454 39.5134C561.213 39.5134 559.255 39.1353 557.58 38.3791C555.906 37.5959 554.515 36.5291 553.408 35.1787C552.3 33.8284 551.463 32.2349 550.896 30.3984C550.356 28.5619 550.086 26.5904 550.086 24.4838C550.086 22.3773 550.383 20.4057 550.977 18.5692C551.571 16.7057 552.435 15.0853 553.57 13.7079C554.731 12.3306 556.162 11.2503 557.864 10.4671C559.592 9.65684 561.564 9.25173 563.778 9.25173C565.291 9.25173 566.722 9.45429 568.073 9.85939C569.423 10.2645 570.625 10.8587 571.678 11.6419C572.731 12.4251 573.609 13.4109 574.311 14.5992C575.014 15.7605 575.473 17.1109 575.689 18.6503H571.84ZM580.78 9.94042H584.224V38.8652H580.78V9.94042ZM593.609 14.1536H590.166V9.94042H593.609V14.1536ZM590.166 17.9211H593.609V38.8652H590.166V17.9211ZM613.892 26.3879C613.838 25.5776 613.649 24.8079 613.325 24.0787C613.028 23.3495 612.609 22.7284 612.069 22.2152C611.556 21.6751 610.935 21.2565 610.206 20.9594C609.503 20.6353 608.72 20.4733 607.856 20.4733C606.965 20.4733 606.154 20.6353 605.425 20.9594C604.723 21.2565 604.115 21.6751 603.602 22.2152C603.089 22.7554 602.684 23.3901 602.387 24.1192C602.09 24.8214 601.914 25.5776 601.86 26.3879H613.892ZM617.214 32.2214C616.755 34.5711 615.742 36.3401 614.176 37.5284C612.609 38.7167 610.638 39.3109 608.261 39.3109C606.587 39.3109 605.128 39.0408 603.886 38.5006C602.671 37.9605 601.644 37.2043 600.807 36.232C599.97 35.2598 599.335 34.0984 598.903 32.7481C598.498 31.3977 598.268 29.9258 598.214 28.3324C598.214 26.739 598.457 25.2806 598.944 23.9572C599.43 22.6338 600.105 21.486 600.969 20.5138C601.86 19.5415 602.9 18.7853 604.088 18.2452C605.304 17.705 606.627 17.4349 608.059 17.4349C609.922 17.4349 611.461 17.8265 612.677 18.6098C613.919 19.366 614.905 20.3382 615.634 21.5265C616.39 22.7149 616.903 24.0112 617.173 25.4156C617.471 26.82 617.592 28.1568 617.538 29.4262H601.86C601.833 30.3444 601.941 31.2222 602.184 32.0594C602.427 32.8696 602.819 33.5988 603.359 34.247C603.899 34.8682 604.588 35.3678 605.425 35.7459C606.263 36.124 607.248 36.313 608.383 36.313C609.841 36.313 611.029 35.9755 611.948 35.3003C612.893 34.6251 613.514 33.5988 613.811 32.2214H617.214ZM621.513 17.9211H624.753V21.243H624.834C626.266 18.7043 628.534 17.4349 631.64 17.4349C633.018 17.4349 634.165 17.624 635.084 18.0021C636.002 18.3802 636.745 18.9068 637.312 19.582C637.879 20.2572 638.271 21.0674 638.487 22.0127C638.73 22.9309 638.851 23.9572 638.851 25.0915V38.8652H635.408V24.6864C635.408 23.3901 635.03 22.3638 634.274 21.6076C633.517 20.8514 632.478 20.4733 631.154 20.4733C630.101 20.4733 629.183 20.6353 628.399 20.9594C627.643 21.2835 627.009 21.7426 626.495 22.3368C625.982 22.9309 625.591 23.6331 625.321 24.4433C625.078 25.2265 624.956 26.0908 624.956 27.036V38.8652H621.513V17.9211ZM649.208 17.9211H653.381V20.9594H649.208V33.9634C649.208 34.3685 649.235 34.6926 649.289 34.9357C649.37 35.1787 649.506 35.3678 649.695 35.5028C649.884 35.6379 650.14 35.7324 650.464 35.7864C650.815 35.8134 651.261 35.8269 651.801 35.8269H653.381V38.8652H650.748C649.857 38.8652 649.087 38.8112 648.439 38.7032C647.818 38.5682 647.304 38.3386 646.899 38.0145C646.521 37.6904 646.238 37.2313 646.049 36.6371C645.86 36.043 645.765 35.2598 645.765 34.2875V20.9594H642.2V17.9211H645.765V11.6419H649.208V17.9211Z" fill="black"/>
</g>
<defs>
<clipPath id="clip0_326_368">
<rect width="655" height="50" fill="white"/>
</clipPath>
</defs>
</svg>
