<svg width="24" height="24" viewBox="0 0 24 24" fill="none" xmlns="http://www.w3.org/2000/svg">
<path d="M12.4761 2.34537C12.177 2.19315 11.823 2.19315 11.5239 2.34537C11.2494 2.48502 11.1162 2.7302 11.0613 2.83501C10.9984 2.95503 10.935 3.10761 10.8741 3.25408L8.8384 8.14844L3.55453 8.57205C3.39641 8.58469 3.2317 8.59786 3.09812 8.62057C2.98147 8.64041 2.70713 8.69132 2.48949 8.90921C2.25227 9.14671 2.1429 9.48332 2.19522 9.81489C2.24322 10.1191 2.43524 10.3215 2.51795 10.4062C2.61266 10.503 2.73818 10.6105 2.85866 10.7137L6.88442 14.1622L5.65448 19.3183C5.61764 19.4726 5.57927 19.6333 5.5596 19.7674C5.54242 19.8845 5.50606 20.1611 5.64604 20.4354C5.79861 20.7344 6.08494 20.9425 6.41645 20.9952C6.7206 21.0435 6.97247 20.9235 7.0785 20.8709C7.19991 20.8108 7.34089 20.7247 7.47623 20.642L12 17.8788L16.5238 20.642C16.6591 20.7247 16.8001 20.8108 16.9215 20.8709C17.0275 20.9235 17.2794 21.0435 17.5835 20.9952C17.9151 20.9425 18.2014 20.7344 18.354 20.4354C18.4939 20.1611 18.4576 19.8845 18.4404 19.7674C18.4207 19.6333 18.3824 19.4726 18.3455 19.3184L17.1156 14.1622L21.1413 10.7137C21.2618 10.6105 21.3873 10.503 21.482 10.4062C21.5648 10.3215 21.7568 10.1191 21.8048 9.81489C21.8571 9.48332 21.7477 9.14671 21.5105 8.90921C21.2929 8.69132 21.0185 8.64041 20.9019 8.62057C20.7683 8.59786 20.6036 8.58469 20.4455 8.57204L15.1616 8.14844L13.1259 3.25407C13.065 3.10761 13.0016 2.95503 12.9387 2.83501C12.8838 2.7302 12.7506 2.48502 12.4761 2.34537Z" fill="currentColor"/>
</svg>
