<svg width="24" height="24" viewBox="0 0 24 24" fill="none" xmlns="http://www.w3.org/2000/svg">
<path d="M11.5239 2.34537C11.823 2.19315 12.177 2.19315 12.4761 2.34537C12.7506 2.48502 12.8838 2.7302 12.9387 2.83501C13.0016 2.95503 13.065 3.10761 13.1259 3.25407L15.1616 8.14844L20.4455 8.57204C20.6036 8.58469 20.7683 8.59786 20.9019 8.62057C21.0185 8.64041 21.2929 8.69132 21.5105 8.90921C21.7477 9.14671 21.8571 9.48332 21.8048 9.81489C21.7568 10.1191 21.5648 10.3215 21.482 10.4062C21.3873 10.503 21.2618 10.6105 21.1413 10.7137L17.1156 14.1622L18.3455 19.3184C18.3824 19.4726 18.4207 19.6333 18.4404 19.7674C18.4576 19.8845 18.4939 20.1611 18.354 20.4354C18.2014 20.7344 17.9151 20.9425 17.5835 20.9952C17.2794 21.0435 17.0275 20.9235 16.9215 20.8709C16.8001 20.8108 16.6591 20.7247 16.5238 20.642L12 17.8788L7.47623 20.642C7.34089 20.7247 7.19991 20.8108 7.0785 20.8709C6.97247 20.9235 6.7206 21.0435 6.41645 20.9952C6.08494 20.9425 5.79861 20.7344 5.64604 20.4354C5.50606 20.1611 5.54242 19.8845 5.5596 19.7674C5.57927 19.6333 5.61764 19.4726 5.65448 19.3183L6.88442 14.1622L2.87797 10.7302L2.85866 10.7137C2.73818 10.6105 2.61266 10.503 2.51795 10.4062C2.43524 10.3215 2.24322 10.1191 2.19522 9.81489C2.1429 9.48332 2.25227 9.14671 2.48949 8.90921C2.70713 8.69132 2.98147 8.64041 3.09812 8.62057C3.2317 8.59786 3.39641 8.58469 3.55453 8.57205L8.8384 8.14844L10.8643 3.27756C10.935 3.10761 10.9984 2.95503 11.0613 2.83501C11.1162 2.7302 11.2494 2.48502 11.5239 2.34537ZM12 4.45298L10.16 8.87676C10.0582 8.96028 9.93555 9.26988 9.5659 9.53844C9.3959 9.61212 9.21244 9.6244 9.12265 9.63047L4.34682 10.0133L7.9855 13.1303C8.05458 13.188 8.29 13.4653 8.4312 13.8998C8.44874 14.0843 8.40372 14.2625 8.38175 14.3498L7.27007 19.0102L11.3589 16.5128C11.5907 16.367 11.7715 16.3267 11.922 16.2932C12.078 16.2932 12.2284 16.3267 12.6257 16.5032L16.7299 19.0102L15.6182 14.3498C15.5963 14.2625 15.5513 14.0843 15.5688 13.8998C15.5834 13.7463 15.6316 13.598 15.71 13.4653C15.8042 13.3057 16.0006 13.142 16.0006 13.142L19.6532 10.0133L14.8773 9.63047C14.7875 9.6244 14.6041 9.61212 14.4341 9.53844C14.2927 9.47714 14.1665 9.38545 14.0644 9.26988C13.9418 9.13096 13.8399 8.87676 13.8399 8.87676L12 4.45298Z" fill="currentColor"/>
</svg>
