<svg width="20" height="20" viewBox="0 0 20 20" fill="none" xmlns="http://www.w3.org/2000/svg">
<path fill-rule="evenodd" clip-rule="evenodd" d="M10 2.5C5.85786 2.5 2.5 5.85786 2.5 10C2.5 14.1421 5.85786 17.5 10 17.5C14.1421 17.5 17.5 14.1421 17.5 10C17.5 5.85786 14.1421 2.5 10 2.5ZM1.25 10C1.25 5.16751 5.16751 1.25 10 1.25C14.8325 1.25 18.75 5.16751 18.75 10C18.75 14.8325 14.8325 18.75 10 18.75C5.16751 18.75 1.25 14.8325 1.25 10ZM10 8.75C10.3452 8.75 10.625 9.02982 10.625 9.375V13.75C10.625 14.0952 10.3452 14.375 10 14.375C9.65482 14.375 9.375 14.0952 9.375 13.75V9.375C9.375 9.02982 9.65482 8.75 10 8.75ZM10 5.625C9.48223 5.625 9.0625 6.04473 9.0625 6.5625C9.0625 7.08027 9.48223 7.5 10 7.5C10.5178 7.5 10.9375 7.08027 10.9375 6.5625C10.9375 6.04473 10.5178 5.625 10 5.625Z" fill="black" fill-opacity="0.6" style="fill:black;fill-opacity:0.6;"/>
</svg>
