<svg width="16" height="16" viewBox="0 0 16 16" fill="none" xmlns="http://www.w3.org/2000/svg">
<path d="M7.47772 2.19654C7.35838 2.12344 7.22834 2.06956 7.09229 2.0369C6.9772 2.00927 6.85671 2.00237 6.66608 2.00064L3.16865 2.00049L2.88983 2.00394C2.50473 2.01303 2.26135 2.04347 2.06133 2.14539C1.81044 2.27322 1.60647 2.47719 1.47864 2.72808C1.37673 2.9281 1.34628 3.17147 1.33719 3.55658L1.33374 3.83539V11.4981L1.33719 11.7769C1.34628 12.162 1.37673 12.4054 1.47864 12.6054C1.60647 12.8563 1.81044 13.0603 2.06133 13.1881C2.20394 13.2607 2.36858 13.2971 2.59092 13.3152L2.79645 13.3268L3.16865 13.333H12.8313L13.2035 13.3268L13.4091 13.3152C13.6314 13.2971 13.7961 13.2607 13.9387 13.1881C14.1895 13.0603 14.3935 12.8563 14.5213 12.6054C14.594 12.4628 14.6303 12.2981 14.6485 12.0758L14.66 11.8703L14.6662 11.4981V5.83539L14.66 5.4632L14.6485 5.25767C14.6303 5.03533 14.594 4.87068 14.5213 4.72808C14.3935 4.47719 14.1895 4.27322 13.9387 4.14539C13.7386 4.04347 13.4953 4.01303 13.1101 4.00394L12.8313 4.00049L9.33332 4.00006L7.87685 2.54367L7.74029 2.40977L7.62806 2.30751C7.57592 2.263 7.52817 2.22746 7.47772 2.19654ZM3.06948 3.00124L6.66603 3.00064L6.80552 3.00403L6.85887 3.00928C6.89287 3.01744 6.9254 3.03092 6.95533 3.04925L7.04116 3.12472L8.62623 4.70719L8.69956 4.7736C8.87748 4.91938 9.10117 5.00004 9.33319 5.00006L12.934 5.00125L13.1802 5.00635L13.3443 5.01471L13.4409 5.02513L13.475 5.03261L13.4846 5.03639C13.5474 5.06835 13.5984 5.11933 13.6303 5.18197L13.6381 5.20522L13.6485 5.27428L13.6567 5.39925L13.666 5.88402L13.6666 11.2001L13.6641 11.6516L13.6567 11.9342L13.6485 12.0591L13.6382 12.1282L13.6303 12.1514C13.5984 12.2141 13.5474 12.2651 13.4847 12.297L13.4615 12.3049L13.3924 12.3152L13.2675 12.3235L12.7827 12.3327L3.46665 12.3334L3.0151 12.3308L2.73252 12.3235L2.60757 12.3152L2.53856 12.3049L2.51534 12.2971C2.45259 12.2651 2.4016 12.2141 2.36964 12.1514C2.36839 12.1489 2.36713 12.1458 2.36587 12.1418L2.35838 12.1076L2.34797 12.0106L2.3396 11.8454L2.3345 11.5972V3.73261L2.3396 3.4865L2.34797 3.32242L2.35838 3.2258L2.36587 3.19167L2.36965 3.18208C2.40161 3.11934 2.45259 3.06836 2.5153 3.03641C2.51776 3.03515 2.52093 3.03389 2.52491 3.03263L2.5591 3.02514L2.65612 3.01472L2.82128 3.00635L3.06948 3.00124ZM3.69204 4.87252C3.66667 4.93378 3.66667 5.01143 3.66667 5.16675C3.66667 5.32206 3.66667 5.39972 3.69204 5.46098C3.72587 5.54265 3.79076 5.60754 3.87244 5.64137C3.9337 5.66675 4.01135 5.66675 4.16667 5.66675H7.33333L6.33333 4.66675H4.16667C4.01135 4.66675 3.9337 4.66675 3.87244 4.69212C3.79076 4.72595 3.72587 4.79084 3.69204 4.87252Z" fill="#00010A" fill-opacity="0.93" style="fill:#00010A;fill:color(display-p3 0.0000 0.0039 0.0392);fill-opacity:0.93;"/>
</svg>
