<svg width="16" height="16" viewBox="0 0 16 16" fill="none" xmlns="http://www.w3.org/2000/svg">
<path d="M11.8667 3.00098H11.6667H8.13332H6.0531C6.07427 2.89875 6.10389 2.81029 6.14531 2.72899C6.27315 2.47811 6.47712 2.27413 6.728 2.1463C7.01322 2.00098 7.38659 2.00098 8.13332 2.00098H11.8667C12.6134 2.00098 12.9868 2.00098 13.272 2.1463C13.5229 2.27413 13.7268 2.47811 13.8547 2.72899C14 3.0142 14 3.38757 14 4.13431V9.20098C14 9.94771 14 10.3211 13.8547 10.6063C13.7268 10.8572 13.5229 11.0612 13.272 11.189C13.1907 11.2304 13.1022 11.26 13 11.2812V4.33431L13 4.32905V4.13431C13 3.74444 12.9992 3.51218 12.9851 3.34001C12.9766 3.23493 12.9652 3.19077 12.9616 3.17893C12.9302 3.11941 12.8816 3.07077 12.822 3.03941C12.8102 3.03573 12.766 3.02441 12.661 3.01582C12.4888 3.00175 12.2565 3.00098 11.8667 3.00098ZM12.8255 3.04061L12.8235 3.03987L12.8249 3.04034C12.8253 3.04051 12.8255 3.0406 12.8255 3.04061ZM12.9605 3.17592C12.9604 3.1756 12.9604 3.17546 12.9604 3.17548L12.9611 3.1775C12.9609 3.17677 12.9607 3.17625 12.9605 3.17592ZM4.13333 5.00098C3.74346 5.00098 3.5112 5.00175 3.33903 5.01582C3.23396 5.02441 3.18979 5.03573 3.17795 5.03941C3.11843 5.07077 3.06979 5.11941 3.03843 5.17893C3.03476 5.19077 3.02343 5.23493 3.01484 5.34001C3.00078 5.51218 3 5.74444 3 6.13431V11.8676C3 12.2575 3.00078 12.4898 3.01484 12.6619C3.02343 12.767 3.03476 12.8112 3.03843 12.823C3.06979 12.8825 3.11843 12.9312 3.17795 12.9625C3.18978 12.9662 3.23395 12.9775 3.33903 12.9861C3.5112 13.0002 3.74346 13.001 4.13333 13.001H9.86667C10.2565 13.001 10.4888 13.0002 10.661 12.9861C10.766 12.9775 10.8102 12.9662 10.8221 12.9625C10.8816 12.9312 10.9302 12.8825 10.9616 12.823C10.9652 12.8112 10.9766 12.767 10.9852 12.6619C10.9992 12.4898 11 12.2575 11 11.8676V6.13431C11 5.74444 10.9992 5.51218 10.9852 5.34001C10.9766 5.23493 10.9652 5.19077 10.9616 5.17893C10.9302 5.11941 10.8816 5.07077 10.822 5.03941C10.8102 5.03573 10.766 5.02441 10.661 5.01582C10.4888 5.00175 10.2565 5.00098 9.86667 5.00098H4.13333ZM10.8255 5.04061L10.8235 5.03986C10.8249 5.04034 10.8255 5.0406 10.8255 5.04061ZM10.9604 5.17548C10.9604 5.17544 10.9606 5.17607 10.9611 5.1775L10.9604 5.17548ZM10.9604 12.8265L10.9611 12.8245C10.9606 12.8259 10.9604 12.8265 10.9604 12.8265ZM10.8255 12.9613C10.8255 12.9614 10.8249 12.9616 10.8235 12.9621L10.8255 12.9613ZM3.1745 12.9613L3.17652 12.9621C3.17509 12.9616 3.17446 12.9614 3.1745 12.9613ZM3.03964 12.8265C3.03962 12.8265 3.03936 12.8259 3.03889 12.8245L3.03964 12.8265ZM3.03964 5.17548L3.03889 5.1775C3.03936 5.17607 3.03962 5.17544 3.03964 5.17548ZM3.1745 5.04061C3.17446 5.0406 3.1751 5.04034 3.17652 5.03987L3.1745 5.04061ZM2 6.13431C2 5.38757 2 5.0142 2.14532 4.72899C2.27316 4.47811 2.47713 4.27413 2.72801 4.1463C3.01323 4.00098 3.3866 4.00098 4.13333 4.00098H9.86667C10.6134 4.00098 10.9868 4.00098 11.272 4.1463C11.5229 4.27413 11.7268 4.47811 11.8547 4.72899C12 5.0142 12 5.38757 12 6.13431V11.8676C12 12.6144 12 12.9877 11.8547 13.273C11.7268 13.5238 11.5229 13.7278 11.272 13.8557C10.9868 14.001 10.6134 14.001 9.86667 14.001H4.13333C3.3866 14.001 3.01323 14.001 2.72801 13.8557C2.47713 13.7278 2.27316 13.5238 2.14532 13.273C2 12.9877 2 12.6144 2 11.8676V6.13431Z" fill="#030A26" fill-opacity="0.65"/>
</svg>
