<svg width="20" height="20" viewBox="0 0 20 20" fill="none" xmlns="http://www.w3.org/2000/svg">
<path d="M4.16667 3.75C3.93655 3.75 3.75 3.93655 3.75 4.16667V7.5C3.75 7.73012 3.93655 7.91667 4.16667 7.91667H7.5C7.73012 7.91667 7.91667 7.73012 7.91667 7.5V4.16667C7.91667 3.93655 7.73012 3.75 7.5 3.75H4.16667ZM2.5 4.16667C2.5 3.24619 3.24619 2.5 4.16667 2.5H7.5C8.42047 2.5 9.16667 3.24619 9.16667 4.16667V7.5C9.16667 8.42047 8.42047 9.16667 7.5 9.16667H4.16667C3.24619 9.16667 2.5 8.42047 2.5 7.5V4.16667ZM12.5 3.75C12.2699 3.75 12.0833 3.93655 12.0833 4.16667V7.5C12.0833 7.73012 12.2699 7.91667 12.5 7.91667H15.8333C16.0635 7.91667 16.25 7.73012 16.25 7.5V4.16667C16.25 3.93655 16.0635 3.75 15.8333 3.75H12.5ZM10.8333 4.16667C10.8333 3.24619 11.5795 2.5 12.5 2.5H15.8333C16.7538 2.5 17.5 3.24619 17.5 4.16667V7.5C17.5 8.42047 16.7538 9.16667 15.8333 9.16667H12.5C11.5795 9.16667 10.8333 8.42047 10.8333 7.5V4.16667ZM7.5 12.0833C7.73012 12.0833 7.91667 12.2699 7.91667 12.5V15.8333C7.91667 16.0635 7.73012 16.25 7.5 16.25H4.16667C3.93655 16.25 3.75 16.0635 3.75 15.8333V12.5C3.75 12.2699 3.93655 12.0833 4.16667 12.0833H7.5ZM4.16667 10.8333C3.24619 10.8333 2.5 11.5795 2.5 12.5V15.8333C2.5 16.7538 3.24619 17.5 4.16667 17.5H7.5C8.42047 17.5 9.16667 16.7538 9.16667 15.8333V12.5C9.16667 11.5795 8.42047 10.8333 7.5 10.8333H4.16667ZM12.5 12.0833C12.2699 12.0833 12.0833 12.2699 12.0833 12.5V15.8333C12.0833 16.0635 12.2699 16.25 12.5 16.25H15.8333C16.0635 16.25 16.25 16.0635 16.25 15.8333V12.5C16.25 12.2699 16.0635 12.0833 15.8333 12.0833H12.5ZM10.8333 12.5C10.8333 11.5795 11.5795 10.8333 12.5 10.8333H15.8333C16.7538 10.8333 17.5 11.5795 17.5 12.5V15.8333C17.5 16.7538 16.7538 17.5 15.8333 17.5H12.5C11.5795 17.5 10.8333 16.7538 10.8333 15.8333V12.5Z" fill="black" fill-opacity="0.9"/>
</svg>
