<svg width="20" height="20" viewBox="0 0 20 20" fill="none" xmlns="http://www.w3.org/2000/svg">
<path d="M9.99984 18.3333C14.6022 18.3333 18.3332 14.6024 18.3332 9.99999C18.3332 5.39762 14.6022 1.66666 9.99984 1.66666C5.39746 1.66666 1.6665 5.39762 1.6665 9.99999C1.6665 14.6024 5.39746 18.3333 9.99984 18.3333ZM6.75733 7.12166C6.83723 6.96486 6.96471 6.83738 7.12151 6.75748C7.29977 6.66666 7.53313 6.66666 7.99984 6.66666H11.9998C12.4665 6.66666 12.6999 6.66666 12.8782 6.75748C13.035 6.83738 13.1624 6.96486 13.2423 7.12166C13.3332 7.29992 13.3332 7.53328 13.3332 7.99999V12C13.3332 12.4667 13.3332 12.7001 13.2423 12.8783C13.1624 13.0351 13.035 13.1626 12.8782 13.2425C12.6999 13.3333 12.4665 13.3333 11.9998 13.3333H7.99984C7.53313 13.3333 7.29977 13.3333 7.12151 13.2425C6.96471 13.1626 6.83723 13.0351 6.75733 12.8783C6.6665 12.7001 6.6665 12.4667 6.6665 12V7.99999C6.6665 7.53328 6.6665 7.29992 6.75733 7.12166Z" fill="#4a70ff" fill-opacity="0.9"/>
</svg>
