<svg width="32" height="33" viewBox="0 0 32 33" fill="none" xmlns="http://www.w3.org/2000/svg">
<rect y="0.5" width="32" height="32" rx="3" fill="#F1F6FF"/>
<path d="M8 14.5C8 13.9477 7.55228 13.5 7 13.5C6.44772 13.5 6 13.9477 6 14.5L7 14.5L8 14.5ZM7 14.5L6 14.5L6 24L7 24L8 24L8 14.5L7 14.5Z" fill="#4A70FF"/>
<path d="M14 9C14 8.44772 13.5523 8 13 8C12.4477 8 12 8.44772 12 9L13 9L14 9ZM13 9L12 9L12 24L13 24L14 24L14 9L13 9Z" fill="#4A70FF"/>
<path d="M20 17C20 16.4477 19.5523 16 19 16C18.4477 16 18 16.4477 18 17L19 17L20 17ZM19 17L18 17L18 24L19 24L20 24L20 17L19 17Z" fill="#4A70FF"/>
<path d="M26 21.5C26 20.9477 25.5523 20.5 25 20.5C24.4477 20.5 24 20.9477 24 21.5L25 21.5L26 21.5ZM25 21.5L24 21.5L24 24L25 24L26 24L26 21.5L25 21.5Z" fill="#4A70FF"/>
</svg>
