<svg width="16" height="16" viewBox="0 0 16 16" fill="none" xmlns="http://www.w3.org/2000/svg">
<path fill-rule="evenodd" clip-rule="evenodd" d="M12.6667 2.16765C12.6667 2.01233 12.6667 1.93468 12.692 1.87342C12.7259 1.79174 12.7908 1.72685 12.8724 1.69302C12.9337 1.66765 13.0114 1.66765 13.1667 1.66765C13.322 1.66765 13.3996 1.66765 13.4609 1.69302C13.5426 1.72685 13.6075 1.79174 13.6413 1.87342C13.6667 1.93468 13.6667 2.01233 13.6667 2.16765L13.6667 6.00098L13 6.00098L12.6667 6.00098L10.1667 6.00098C10.0114 6.00098 9.9337 6.00098 9.87244 5.97561C9.79076 5.94178 9.72587 5.87688 9.69204 5.79521C9.66667 5.73395 9.66667 5.65629 9.66667 5.50098C9.66667 5.34567 9.66667 5.26801 9.69204 5.20675C9.72587 5.12508 9.79076 5.06019 9.87244 5.02635C9.9337 5.00098 10.0114 5.00098 10.1667 5.00098L12.0004 5.00098C11.0882 3.78653 9.63582 3.00098 8 3.00098C5.23858 3.00098 3 5.23956 3 8.00098C3 10.7624 5.23858 13.001 8 13.001C10.2997 13.001 12.2368 11.4484 12.8203 9.33431L13.8513 9.33431C13.245 12.0063 10.8555 14.001 8 14.001C4.68629 14.001 2 11.3147 2 8.00098C2 4.68727 4.68629 2.00098 8 2.00098C9.88484 2.00098 11.5667 2.87009 12.6667 4.22942L12.6667 2.16765Z" fill="#030A26" fill-opacity="0.65"/>
</svg>
