<svg width="20" height="20" viewBox="0 0 20 20" fill="none" xmlns="http://www.w3.org/2000/svg">
<path fill-rule="evenodd" clip-rule="evenodd" d="M15.8333 2.70833C15.8333 2.51418 15.8333 2.41711 15.865 2.34054C15.9073 2.23845 15.9885 2.15733 16.0905 2.11504C16.1671 2.08333 16.2642 2.08333 16.4583 2.08333C16.6525 2.08333 16.7495 2.08333 16.8261 2.11504C16.9282 2.15733 17.0093 2.23845 17.0516 2.34054C17.0833 2.41711 17.0833 2.51418 17.0833 2.70833L17.0833 7.49999L16.25 7.49999L15.8333 7.49999L12.7083 7.5C12.5142 7.5 12.4171 7.5 12.3405 7.46828C12.2385 7.42599 12.1573 7.34487 12.115 7.24278C12.0833 7.16621 12.0833 7.06914 12.0833 6.87499C12.0833 6.68085 12.0833 6.58378 12.115 6.50721C12.1573 6.40512 12.2385 6.324 12.3405 6.28171C12.4171 6.24999 12.5142 6.24999 12.7083 6.24999L15.0005 6.24999C13.8602 4.73194 12.0448 3.74999 10 3.74999C6.54822 3.74999 3.75 6.54822 3.75 10C3.75 13.4518 6.54822 16.25 10 16.25C12.8746 16.25 15.2959 14.3093 16.0253 11.6667L17.3142 11.6667C16.5563 15.0066 13.5693 17.5 10 17.5C5.85787 17.5 2.5 14.1421 2.5 10C2.5 5.85786 5.85786 2.49999 10 2.49999C12.3561 2.49999 14.4584 3.58638 15.8333 5.28555L15.8333 2.70833Z" fill="black" fill-opacity="0.9"/>
</svg>
