<svg width="20" height="20" viewBox="0 0 20 20" fill="none" xmlns="http://www.w3.org/2000/svg">
<path fill-rule="evenodd" clip-rule="evenodd" d="M15.8333 2.70831C15.8333 2.51417 15.8333 2.4171 15.8651 2.34053C15.9073 2.23843 15.9885 2.15732 16.0905 2.11503C16.1671 2.08331 16.2642 2.08331 16.4583 2.08331C16.6525 2.08331 16.7495 2.08331 16.8261 2.11503C16.9282 2.15732 17.0093 2.23843 17.0516 2.34053C17.0833 2.4171 17.0833 2.51417 17.0833 2.70831L17.0833 7.49998L16.25 7.49998L15.8333 7.49998L12.7083 7.49998C12.5142 7.49998 12.4171 7.49998 12.3405 7.46826C12.2385 7.42597 12.1573 7.34486 12.1151 7.24276C12.0833 7.16619 12.0833 7.06912 12.0833 6.87498C12.0833 6.68084 12.0833 6.58377 12.1151 6.50719C12.1573 6.4051 12.2385 6.32398 12.3405 6.2817C12.4171 6.24998 12.5142 6.24998 12.7083 6.24998L15.0005 6.24998C13.8602 4.73192 12.0448 3.74998 10 3.74998C6.54822 3.74998 3.75 6.5482 3.75 9.99998C3.75 13.4518 6.54822 16.25 10 16.25C12.8746 16.25 15.296 14.3093 16.0253 11.6666L17.3142 11.6666C16.5563 15.0066 13.5693 17.5 10 17.5C5.85787 17.5 2.5 14.1421 2.5 9.99998C2.5 5.85784 5.85786 2.49998 10 2.49998C12.3561 2.49998 14.4584 3.58637 15.8333 5.28553L15.8333 2.70831Z" fill="black" fill-opacity="0.6" style="fill:black;fill-opacity:0.6;"/>
</svg>
