<svg width="28" height="28" viewBox="0 0 28 28" fill="none" xmlns="http://www.w3.org/2000/svg">
<path d="M14.0007 25.6666C20.444 25.6666 25.6673 20.4432 25.6673 13.9999C25.6673 7.5566 20.444 2.33325 14.0007 2.33325C7.55733 2.33325 2.33398 7.5566 2.33398 13.9999C2.33398 20.4432 7.55733 25.6666 14.0007 25.6666ZM9.46114 9.97026C9.573 9.75074 9.75147 9.57226 9.971 9.46041C10.2206 9.33325 10.5473 9.33325 11.2007 9.33325H16.8006C17.454 9.33325 17.7807 9.33325 18.0303 9.46041C18.2498 9.57226 18.4283 9.75074 18.5402 9.97026C18.6673 10.2198 18.6673 10.5465 18.6673 11.1999V16.7999C18.6673 17.4533 18.6673 17.78 18.5402 18.0296C18.4283 18.2491 18.2498 18.4276 18.0303 18.5394C17.7807 18.6666 17.454 18.6666 16.8006 18.6666H11.2007C10.5473 18.6666 10.2206 18.6666 9.971 18.5394C9.75147 18.4276 9.573 18.2491 9.46114 18.0296C9.33398 17.78 9.33398 17.4533 9.33398 16.7999V11.1999C9.33398 10.5465 9.33398 10.2198 9.46114 9.97026Z" fill="#4A70FF"/>
</svg>
