<svg width="16" height="16" viewBox="0 0 16 16" fill="none" xmlns="http://www.w3.org/2000/svg">
<path d="M9 6.49989L7.54174 6.49989C4.69417 6.49989 2.34823 8.64761 2.03543 11.4115C3.49319 10.1882 5.34864 9.49989 7.28728 9.49989L9 9.49989L9 12.6994L14.0344 7.99999L9 3.30187L9 6.49989ZM2 12.8271C1.99218 12.8357 1.98439 12.8442 1.97661 12.8528C1.9238 12.911 1.87187 12.9702 1.82085 13.0303C1.75952 13.1026 1.69949 13.1763 1.64081 13.2513C1.43079 13.5197 1 13.3712 1 13.0303L1 12.0416C1 8.42872 3.92884 5.49989 7.54174 5.49989L8 5.49989L8 3.15123C8 2.33412 8.97475 1.9105 9.57214 2.46799L14.768 7.31674C15.1638 7.68617 15.1639 8.31365 14.7681 8.68314L9.57223 13.5332C8.97487 14.0909 8 13.6673 8 12.8501L8 10.4999L7.28728 10.4999C7.19127 10.4999 7.0955 10.5018 7 10.5056C5.08732 10.5822 3.28782 11.4208 2 12.8271Z" fill="#030A26" fill-opacity="0.65"/>
</svg>
