<svg width="20" height="20" viewBox="0 0 20 20" fill="none" xmlns="http://www.w3.org/2000/svg">
<path d="M4.19871 6.09053C4.16699 6.1671 4.16699 6.26417 4.16699 6.45831C4.16699 6.65246 4.16699 6.74953 4.19871 6.8261C4.241 6.92819 4.32211 7.00931 4.42421 7.0516C4.50078 7.08331 4.59785 7.08331 4.79199 7.08331H6.04199C6.23613 7.08331 6.33321 7.08331 6.40978 7.0516C6.51187 7.00931 6.59299 6.92819 6.63528 6.8261C6.66699 6.74953 6.66699 6.65246 6.66699 6.45831C6.66699 6.26417 6.66699 6.1671 6.63528 6.09053C6.59299 5.98843 6.51187 5.90732 6.40978 5.86503C6.33321 5.83331 6.23613 5.83331 6.04199 5.83331H4.79199C4.59785 5.83331 4.50078 5.83331 4.42421 5.86503C4.32211 5.90732 4.241 5.98843 4.19871 6.09053Z" fill="#00010A" fill-opacity="0.93"/>
<path d="M4.16699 8.95831C4.16699 8.76417 4.16699 8.6671 4.19871 8.59053C4.241 8.48843 4.32211 8.40732 4.42421 8.36503C4.50078 8.33331 4.59785 8.33331 4.79199 8.33331H6.04199C6.23613 8.33331 6.33321 8.33331 6.40978 8.36503C6.51187 8.40732 6.59299 8.48843 6.63528 8.59053C6.66699 8.6671 6.66699 8.76417 6.66699 8.95831C6.66699 9.15246 6.66699 9.24953 6.63528 9.3261C6.59299 9.42819 6.51187 9.50931 6.40978 9.5516C6.33321 9.58331 6.23613 9.58331 6.04199 9.58331H4.79199C4.59785 9.58331 4.50078 9.58331 4.42421 9.5516C4.32211 9.50931 4.241 9.42819 4.19871 9.3261C4.16699 9.24953 4.16699 9.15246 4.16699 8.95831Z" fill="#00010A" fill-opacity="0.93"/>
<path d="M4.19871 11.0905C4.16699 11.1671 4.16699 11.2642 4.16699 11.4583C4.16699 11.6525 4.16699 11.7495 4.19871 11.8261C4.241 11.9282 4.32211 12.0093 4.42421 12.0516C4.50078 12.0833 4.59785 12.0833 4.79199 12.0833H6.04199C6.23613 12.0833 6.33321 12.0833 6.40978 12.0516C6.51187 12.0093 6.59299 11.9282 6.63528 11.8261C6.66699 11.7495 6.66699 11.6525 6.66699 11.4583C6.66699 11.2642 6.66699 11.1671 6.63528 11.0905C6.59299 10.9884 6.51187 10.9073 6.40978 10.865C6.33321 10.8333 6.23613 10.8333 6.04199 10.8333H4.79199C4.59785 10.8333 4.50078 10.8333 4.42421 10.865C4.32211 10.9073 4.241 10.9884 4.19871 11.0905Z" fill="#00010A" fill-opacity="0.93"/>
<path fill-rule="evenodd" clip-rule="evenodd" d="M2.57701 3.51497C2.2634 3.67476 2.00844 3.92973 1.84865 4.24333C1.66699 4.59985 1.66699 5.06656 1.66699 5.99998V14C1.66699 14.9334 1.66699 15.4001 1.84865 15.7566C2.00844 16.0702 2.2634 16.3252 2.57701 16.485C2.93353 16.6666 3.40024 16.6666 4.33366 16.6666H15.667C16.6004 16.6666 17.0671 16.6666 17.4236 16.485C17.7372 16.3252 17.9922 16.0702 18.152 15.7566C18.3337 15.4001 18.3337 14.9334 18.3337 14V5.99998C18.3337 5.06656 18.3337 4.59985 18.152 4.24333C17.9922 3.92973 17.7372 3.67476 17.4236 3.51497C17.0671 3.33331 16.6004 3.33331 15.667 3.33331H4.33366C3.40024 3.33331 2.93353 3.33331 2.57701 3.51497ZM15.667 15.4166H9.16699L9.16699 4.58331H15.667C16.1543 4.58331 16.4447 4.58429 16.6599 4.60187C16.7912 4.6126 16.8464 4.62676 16.8612 4.63135C16.9356 4.67055 16.9964 4.73135 17.0356 4.80575C17.0402 4.82055 17.0544 4.87576 17.0651 5.00711C17.0827 5.22232 17.0837 5.51264 17.0837 5.99998V14C17.0837 14.4873 17.0827 14.7776 17.0651 14.9929C17.0544 15.1242 17.0402 15.1794 17.0356 15.1942C16.9964 15.2686 16.9356 15.3294 16.8612 15.3686C16.8464 15.3732 16.7912 15.3874 16.6599 15.3981C16.4447 15.4157 16.1543 15.4166 15.667 15.4166ZM7.91699 15.4166L7.91699 4.58331H4.33366C3.84632 4.58331 3.556 4.58429 3.34079 4.60187C3.20944 4.6126 3.15423 4.62676 3.13943 4.63135C3.06503 4.67055 3.00423 4.73135 2.96503 4.80575C2.96044 4.82055 2.94628 4.87576 2.93555 5.00711C2.91796 5.22232 2.91699 5.51264 2.91699 5.99998V14C2.91699 14.4873 2.91796 14.7776 2.93555 14.9929C2.94628 15.1242 2.96044 15.1794 2.96503 15.1942C3.00423 15.2686 3.06503 15.3294 3.13943 15.3686C3.15423 15.3732 3.20944 15.3874 3.34079 15.3981C3.556 15.4157 3.84632 15.4166 4.33366 15.4166H7.91699ZM3.13512 15.3671L3.13764 15.368C3.13586 15.3674 3.13507 15.3671 3.13512 15.3671ZM2.96654 15.1985C2.96652 15.1986 2.96619 15.1978 2.9656 15.196L2.96654 15.1985ZM2.96654 4.80144L2.9656 4.80396C2.96619 4.80218 2.96652 4.80139 2.96654 4.80144ZM3.13512 4.63286C3.13507 4.63284 3.13586 4.63251 3.13764 4.63192L3.13512 4.63286ZM16.8655 4.63286L16.863 4.63193C16.8648 4.63251 16.8656 4.63284 16.8655 4.63286ZM17.0341 15.1985L17.0351 15.1959L17.0346 15.1972C17.0343 15.1981 17.0341 15.1985 17.0341 15.1985ZM16.8653 15.3672C16.8653 15.3672 16.8655 15.3671 16.8653 15.3672V15.3672Z" fill="#00010A" fill-opacity="0.93"/>
</svg>
