<svg width="20" height="20" viewBox="0 0 20 20" fill="none" xmlns="http://www.w3.org/2000/svg">
<path fill-rule="evenodd" clip-rule="evenodd" d="M12.0522 14.9861C12.3454 15.8654 11.997 16.8042 11.2611 17.2945C11.24 17.2547 11.2177 17.2132 11.1944 17.17C10.9702 16.7554 10.6426 16.1878 10.2282 15.575C9.42845 14.3922 8.25152 12.9592 6.81181 12.1913L6.81181 4.58017L12.7172 4.58017C13.4942 4.58017 13.7037 4.59146 13.8653 4.65751C14.0325 4.72576 14.179 4.83628 14.2905 4.97822C14.3984 5.11555 14.4668 5.31388 14.6803 6.06099L15.6564 9.47766L15.6564 9.47767L15.6564 9.47769L15.6564 9.47771L15.6567 9.47864C15.8246 10.0663 15.9385 10.4673 15.9982 10.7789C16.0572 11.0867 16.0468 11.2322 16.0211 11.3228C15.9502 11.5727 15.7885 11.7871 15.5676 11.924C15.4875 11.9736 15.3505 12.0236 15.0383 12.0514C14.7222 12.0796 14.3049 12.0802 13.6933 12.0802L11.9507 12.0802L11.0836 12.0802L11.3578 12.9028L12.0522 14.9861ZM5.56181 4.58023L5.56181 12.0801C5.17504 12.0798 4.90156 12.0772 4.68491 12.0595C4.44564 12.04 4.33124 12.0051 4.25577 11.9666C4.05977 11.8668 3.90041 11.7074 3.80055 11.5114C3.76209 11.4359 3.72719 11.3215 3.70764 11.0823C3.6875 10.8357 3.68701 10.5155 3.68701 10.0385L3.68701 6.62184C3.68701 6.14482 3.6875 5.82464 3.70764 5.57807C3.72719 5.3388 3.76209 5.2244 3.80055 5.14893C3.90041 4.95293 4.05977 4.79357 4.25577 4.69371C4.33124 4.65526 4.44564 4.62035 4.68491 4.6008C4.90156 4.5831 5.17504 4.58058 5.56181 4.58023ZM10.411 18.3838L10.4111 18.3839L10.4111 18.384L10.6454 18.8917L11.1761 18.7148C12.8843 18.1454 13.8075 16.299 13.2381 14.5908L12.8179 13.3302L13.6933 13.3302L13.7224 13.3302C14.2977 13.3302 14.771 13.3302 15.1493 13.2965C15.5381 13.2618 15.9028 13.1868 16.226 12.9865C16.7118 12.6855 17.0676 12.2138 17.2236 11.664C17.3274 11.2981 17.2994 10.9269 17.2259 10.5436C17.1544 10.1706 17.0244 9.71549 16.8663 9.16235L16.8583 9.13434L16.8583 9.13429L16.8583 9.13427L16.8578 9.13247L16.8578 9.13243L15.8822 5.71761L15.8519 5.61143C15.6844 5.023 15.5532 4.562 15.2734 4.20588C15.028 3.89361 14.7057 3.65047 14.338 3.5003C13.9187 3.32905 13.4394 3.32951 12.8276 3.3301L12.7172 3.33017L5.72868 3.33017L5.7033 3.33017C5.25818 3.33016 4.88664 3.33016 4.58312 3.35496C4.26655 3.38082 3.96933 3.43675 3.68828 3.57995C3.25708 3.79966 2.9065 4.15024 2.68679 4.58144C2.54358 4.8625 2.48766 5.15971 2.46179 5.47628C2.437 5.7798 2.437 6.15134 2.43701 6.59646L2.43701 6.62184L2.43701 10.0385L2.43701 10.0639C2.437 10.509 2.437 10.8805 2.46179 11.1841C2.48766 11.5006 2.54358 11.7978 2.68679 12.0789C2.9065 12.5101 3.25708 12.8607 3.68828 13.0804C3.96934 13.2236 4.26655 13.2795 4.58312 13.3054C4.88665 13.3302 5.25819 13.3302 5.70332 13.3302L5.72868 13.3302L6.28965 13.3302C7.42324 13.9593 8.43531 15.155 9.19276 16.2751C9.57877 16.846 9.88518 17.3768 10.0949 17.7646C10.1995 17.9582 10.2797 18.1153 10.3331 18.223C10.3599 18.2768 10.3799 18.3182 10.393 18.3456L10.4073 18.3758L10.4105 18.3827L10.411 18.3838Z" fill="black" fill-opacity="0.9"/>
</svg>
