<svg width="16" height="16" viewBox="0 0 16 16" fill="none" xmlns="http://www.w3.org/2000/svg">
<path fill-rule="evenodd" clip-rule="evenodd" d="M9.64189 11.9899C9.87638 12.6933 9.59771 13.4443 9.00896 13.8366C8.99208 13.8047 8.9743 13.7715 8.95564 13.737C8.77626 13.4053 8.5142 12.9512 8.18269 12.4609C7.54286 11.5147 6.60131 10.3683 5.44954 9.754L5.44954 3.66511L10.1738 3.66511C10.7954 3.66511 10.963 3.67415 11.0924 3.72698C11.2261 3.78158 11.3433 3.87 11.4325 3.98355C11.5188 4.09342 11.5736 4.25208 11.7443 4.84977L12.5252 7.5831L12.5252 7.58311L12.5252 7.58313L12.5252 7.58314L12.5254 7.58388C12.6597 8.05397 12.7509 8.37482 12.7987 8.6241C12.8459 8.87031 12.8375 8.98672 12.817 9.05923C12.7602 9.25916 12.6309 9.43069 12.4542 9.54015C12.3901 9.57985 12.2805 9.61983 12.0308 9.64209C11.7778 9.66464 11.4441 9.66511 10.9547 9.66511L9.56068 9.66511L8.86696 9.66511L9.08634 10.3232L9.64189 11.9899ZM4.44954 3.66516L4.44954 9.66507C4.14013 9.66479 3.92134 9.66277 3.74803 9.64861C3.55661 9.63297 3.46509 9.60505 3.40471 9.57428C3.24791 9.49439 3.12043 9.36691 3.04053 9.2101C3.00977 9.14973 2.98185 9.05821 2.96621 8.86679C2.9501 8.66954 2.94971 8.4134 2.94971 8.03178L2.94971 5.29844C2.94971 4.91683 2.9501 4.66068 2.96621 4.46343C2.98185 4.27202 3.00977 4.18049 3.04053 4.12012C3.12043 3.96332 3.24791 3.83583 3.40471 3.75594C3.46509 3.72518 3.55661 3.69726 3.74803 3.68162C3.92134 3.66746 4.14013 3.66544 4.44954 3.66516ZM8.32891 14.708L8.32898 14.7081L8.32901 14.7082L8.51645 15.1143L8.941 14.9728C10.3076 14.5173 11.0461 13.0402 10.5906 11.6736L10.2544 10.6651L10.9547 10.6651L10.978 10.6651C11.4383 10.6651 11.8169 10.6651 12.1196 10.6381C12.4306 10.6104 12.7223 10.5504 12.9809 10.3902C13.3696 10.1494 13.6542 9.77202 13.779 9.33216C13.862 9.03949 13.8396 8.74252 13.7808 8.43586C13.7236 8.13742 13.6196 7.77337 13.4932 7.33086L13.4868 7.30844L13.4867 7.3084L13.4867 7.30839L13.4863 7.30695L13.4863 7.30692L12.7059 4.57507L12.6816 4.49012C12.5476 4.01937 12.4427 3.65058 12.2188 3.36568C12.0225 3.11586 11.7646 2.92135 11.4705 2.80122C11.135 2.66421 10.7516 2.66458 10.2622 2.66506L10.1738 2.66511L4.58304 2.66511L4.56274 2.66511C4.20664 2.6651 3.90941 2.6651 3.66659 2.68494C3.41334 2.70563 3.17557 2.75037 2.95072 2.86493C2.60576 3.0407 2.3253 3.32117 2.14953 3.66613C2.03496 3.89097 1.99022 4.12874 1.96953 4.382C1.94969 4.62482 1.9497 4.92205 1.94971 5.27814L1.94971 5.29844L1.94971 8.03178L1.94971 8.05208C1.9497 8.40818 1.94969 8.70541 1.96953 8.94823C1.99023 9.20148 2.03497 9.43925 2.14953 9.66409C2.3253 10.0091 2.60576 10.2895 2.95072 10.4653C3.17557 10.5799 3.41334 10.6246 3.66659 10.6453C3.90942 10.6651 4.20665 10.6651 4.56275 10.6651L4.58304 10.6651L5.03182 10.6651C5.93869 11.1684 6.74835 12.125 7.3543 13.0211C7.66311 13.4778 7.90824 13.9024 8.07599 14.2126C8.15972 14.3675 8.22383 14.4932 8.2666 14.5794C8.28798 14.6224 8.30401 14.6555 8.31447 14.6774L8.32595 14.7016L8.32851 14.7071L8.32891 14.708Z" fill="#030A26" fill-opacity="0.65"/>
</svg>
