<svg width="20" height="20" viewBox="0 0 20 20" fill="none" xmlns="http://www.w3.org/2000/svg">
<path fill-rule="evenodd" clip-rule="evenodd" d="M12.3237 5.01388C12.6168 4.13455 12.2685 3.19585 11.5326 2.7055C11.5115 2.74528 11.4892 2.78681 11.4659 2.82995C11.2417 3.24463 10.9141 3.81224 10.4997 4.42505C9.69993 5.60783 8.523 7.04084 7.08329 7.80872L7.08329 15.4198H12.9886C13.7656 15.4198 13.9751 15.4085 14.1368 15.3425C14.304 15.2742 14.4505 15.1637 14.562 15.0218C14.6699 14.8844 14.7383 14.6861 14.9518 13.939L15.9279 10.5223L15.9279 10.5223L15.9279 10.5223L15.9279 10.5223L15.9282 10.5214C16.096 9.93375 16.21 9.53269 16.2697 9.22109C16.3287 8.91333 16.3183 8.76782 16.2926 8.67718C16.2217 8.42726 16.0599 8.21286 15.8391 8.07603C15.759 8.02641 15.622 7.97642 15.3098 7.9486C14.9936 7.92041 14.5764 7.91983 13.9648 7.91983H12.2222H11.3551L11.6293 7.09718L12.3237 5.01388ZM5.83329 15.4198L5.83329 7.91988C5.44652 7.92023 5.17304 7.92276 4.9564 7.94046C4.71713 7.96001 4.60272 7.99491 4.52726 8.03336C4.33125 8.13323 4.1719 8.29258 4.07203 8.48859C4.03358 8.56405 3.99868 8.67846 3.97913 8.91773C3.95898 9.16429 3.9585 9.48447 3.9585 9.96149V13.3782C3.9585 13.8552 3.95898 14.1754 3.97913 14.4219C3.99868 14.6612 4.03358 14.7756 4.07203 14.8511C4.1719 15.0471 4.33125 15.2064 4.52726 15.3063C4.60272 15.3447 4.71713 15.3796 4.9564 15.3992C5.17304 15.4169 5.44652 15.4194 5.83329 15.4198ZM10.6825 1.61625L10.6826 1.61606L10.6826 1.61597L10.9169 1.10834L11.4476 1.28523C13.1558 1.85462 14.079 3.70098 13.5096 5.40916L13.0894 6.66983H13.9648H13.9939C14.5692 6.66982 15.0425 6.66981 15.4208 6.70354C15.8096 6.73819 16.1742 6.81317 16.4975 7.01347C16.9833 7.3145 17.3391 7.78619 17.4951 8.33601C17.5989 8.70186 17.5708 9.07307 17.4974 9.45639C17.4259 9.82944 17.2958 10.2845 17.1378 10.8376L17.1298 10.8657L17.1298 10.8657L17.1298 10.8657L17.1293 10.8675L17.1293 10.8676L16.1537 14.2824L16.1234 14.3886C15.9559 14.977 15.8247 15.438 15.5449 15.7941C15.2995 16.1064 14.9771 16.3495 14.6095 16.4997C14.1902 16.6709 13.7109 16.6705 13.0991 16.6699L12.9886 16.6698H6.00016H5.97479C5.52966 16.6698 5.15813 16.6698 4.8546 16.645C4.53803 16.6192 4.24082 16.5633 3.95977 16.4201C3.52856 16.2003 3.17798 15.8498 2.95827 15.4186C2.81507 15.1375 2.75914 14.8403 2.73328 14.5237C2.70848 14.2202 2.70849 13.8487 2.7085 13.4035V13.3782V9.96149V9.93612C2.70849 9.49099 2.70848 9.11946 2.73328 8.81593C2.75914 8.49936 2.81507 8.20215 2.95827 7.9211C3.17798 7.48989 3.52856 7.13931 3.95977 6.9196C4.24082 6.7764 4.53803 6.72047 4.8546 6.69461C5.15813 6.66981 5.52968 6.66982 5.97481 6.66983H6.00016H6.56114C7.69473 6.04071 8.7068 4.845 9.46424 3.72485C9.85025 3.154 10.1567 2.62322 10.3663 2.23542C10.471 2.04183 10.5511 1.88469 10.6046 1.77701C10.6313 1.72319 10.6514 1.68178 10.6644 1.65443L10.6788 1.62417L10.682 1.61734L10.6825 1.61625Z" fill="black" fill-opacity="0.9"/>
</svg>
