<svg width="16" height="16" viewBox="0 0 16 16" fill="none" xmlns="http://www.w3.org/2000/svg">
<path fill-rule="evenodd" clip-rule="evenodd" d="M9.85869 4.01208C10.0932 3.30862 9.81451 2.55766 9.22576 2.16538C9.20887 2.19721 9.19109 2.23043 9.17243 2.26494C8.99306 2.59669 8.73099 3.05077 8.39949 3.54102C7.75965 4.48724 6.81811 5.63365 5.66634 6.24795L5.66634 12.3368H10.3906C11.0122 12.3368 11.1798 12.3278 11.3092 12.275C11.4429 12.2204 11.5601 12.132 11.6493 12.0184C11.7356 11.9085 11.7904 11.7499 11.9611 11.1522L12.742 8.41885L12.742 8.41884L12.742 8.41883L12.742 8.41881L12.7422 8.41807C12.8765 7.94798 12.9677 7.62713 13.0155 7.37785C13.0627 7.13164 13.0543 7.01523 13.0338 6.94273C12.977 6.74279 12.8477 6.57127 12.671 6.4618C12.6069 6.4221 12.4973 6.38212 12.2476 6.35986C11.9946 6.33731 11.6608 6.33684 11.1715 6.33684H9.77748H9.08376L9.30313 5.67873L9.85869 4.01208ZM4.66634 12.3368L4.66634 6.33689C4.35692 6.33717 4.13814 6.33919 3.96482 6.35335C3.77341 6.36899 3.68189 6.39691 3.62151 6.42767C3.46471 6.50756 3.33723 6.63505 3.25733 6.79185C3.22657 6.85222 3.19865 6.94374 3.18301 7.13516C3.16689 7.33241 3.1665 7.58856 3.1665 7.97017V10.7035C3.1665 11.0851 3.16689 11.3413 3.18301 11.5385C3.19865 11.7299 3.22657 11.8215 3.25733 11.8818C3.33723 12.0386 3.46471 12.1661 3.62151 12.246C3.68189 12.2768 3.77341 12.3047 3.96482 12.3203C4.13814 12.3345 4.35692 12.3365 4.66634 12.3368ZM8.54571 1.29398L8.54578 1.29383L8.54581 1.29376L8.73325 0.88765L9.1578 1.02917C10.5244 1.48468 11.2629 2.96176 10.8074 4.32831L10.4712 5.33684H11.1715H11.1948C11.6551 5.33683 12.0337 5.33683 12.3364 5.36381C12.6474 5.39153 12.9391 5.45152 13.1977 5.61176C13.5864 5.85258 13.871 6.22993 13.9958 6.66979C14.0788 6.96247 14.0564 7.25944 13.9976 7.56609C13.9404 7.86453 13.8364 8.22859 13.71 8.67109L13.7036 8.69351L13.7035 8.69355L13.7035 8.69356L13.7031 8.695L13.7031 8.69503L12.9227 11.4269L12.8984 11.5118C12.7644 11.9826 12.6595 12.3514 12.4356 12.6363C12.2393 12.8861 11.9814 13.0806 11.6873 13.2007C11.3518 13.3377 10.9684 13.3374 10.479 13.3369L10.3906 13.3368H4.79984H4.77954C4.42344 13.3368 4.12621 13.3369 3.88339 13.317C3.63013 13.2963 3.39236 13.2516 3.16752 13.137C2.82256 12.9613 2.54209 12.6808 2.36633 12.3358C2.25176 12.111 2.20702 11.8732 2.18633 11.62C2.16649 11.3771 2.1665 11.0799 2.1665 10.7238V10.7035V7.97017V7.94987C2.1665 7.59377 2.16649 7.29655 2.18633 7.05373C2.20702 6.80047 2.25176 6.5627 2.36633 6.33786C2.54209 5.99289 2.82256 5.71243 3.16752 5.53666C3.39236 5.4221 3.63013 5.37736 3.88339 5.35667C4.12621 5.33683 4.42345 5.33683 4.77955 5.33684H4.79984H5.24862C6.15549 4.83355 6.96514 3.87698 7.5711 2.98086C7.87991 2.52418 8.12504 2.09956 8.29278 1.78932C8.37652 1.63445 8.44062 1.50873 8.4834 1.42258C8.50478 1.37953 8.5208 1.34641 8.53126 1.32452L8.54275 1.30031L8.5453 1.29485L8.54571 1.29398Z" fill="#030A26" fill-opacity="0.65"/>
</svg>
